<svg width="83" height="55" viewBox="0 0 83 55" fill="none" xmlns="http://www.w3.org/2000/svg">
<path d="M18.3398 23.1863C23.2855 19.0383 25.0404 16.1134 25.0404 11.1677C25.0404 5.4775 22.0092 0 12.5964 0C3.18358 0 0.152344 5.47751 0.152344 12.2313H7.0657C7.0657 8.50875 8.18247 6.91336 12.5964 6.91336C17.0103 6.91336 18.1271 8.40239 18.1271 11.1677C18.1271 14.6776 15.6808 16.5921 10.6287 20.5805L0.152344 29.2488V36.1622H24.5086V29.2488H11.3733L18.3398 23.1863Z" fill="#263238"/>
<path d="M30.8844 18.2938H51.199V11.3804H30.8844V18.2938ZM30.8844 28.9297H51.199V22.0164H30.8844V28.9297Z" fill="#263238"/>
<path d="M73.0002 14.8903L81.9344 6.91336V0H58.6417V6.91336H72.2557L64.4383 14.3585L66.8313 19.6765H70.4476C74.1701 19.6765 76.0846 20.8464 76.0846 24.4626C76.0846 27.9193 74.5956 29.2488 70.0221 29.2488C65.5018 29.2488 63.9596 27.9193 63.9596 24.4626H57.0463C57.0463 30.6847 60.8752 36.1622 70.0221 36.1622C79.169 36.1622 82.998 30.6847 82.998 24.9944C82.998 17.7088 77.7864 14.3585 73.0002 14.8903Z" fill="#263238"/>
<path d="M1.98466 46.5186H0V54.244H1.98466V51.2112H4.54473V54.244H6.51476V46.5186H4.54473V49.5263H1.98466V46.5186Z" fill="#263238"/>
<path d="M10.1249 54.3899C11.2318 54.3899 11.9486 53.892 12.3144 53.1727H12.3729V54.244H14.3429V49.0334C14.3429 47.1925 12.8312 46.418 11.1635 46.418C9.36906 46.418 8.18899 47.3032 7.90129 48.7115L9.82256 48.8724C9.96397 48.3594 10.4077 47.9822 11.1538 47.9822C11.8609 47.9822 12.2656 48.3493 12.2656 48.9831V49.0132C12.2656 49.5112 11.7536 49.5766 10.4516 49.7073C8.9692 49.8482 7.63797 50.3612 7.63797 52.0863C7.63797 53.6153 8.69613 54.3899 10.1249 54.3899ZM10.7198 52.9112C10.081 52.9112 9.62263 52.6044 9.62263 52.0159C9.62263 51.4124 10.1054 51.1156 10.8368 51.01C11.2903 50.9446 12.0315 50.834 12.2802 50.663V51.4828C12.2802 52.2925 11.6317 52.9112 10.7198 52.9112Z" fill="#263238"/>
<path d="M18.858 54.244H22.5445C24.417 54.244 25.4606 53.4544 25.4606 52.1366C25.4606 51.1206 24.6804 50.3159 23.3345 50.2153C24.4073 50.0242 25.0461 49.4408 25.0461 48.6058C25.0461 47.268 23.9001 46.5186 22.052 46.5186H18.858V54.244ZM20.7939 52.6396V50.9547H22.5445C23.1199 50.9547 23.471 51.2917 23.471 51.8399C23.471 52.3378 23.1199 52.6396 22.5445 52.6396H20.7939ZM20.7939 49.6973V48.1582H22.052C22.6957 48.1582 23.0907 48.4449 23.0907 48.9177C23.0907 49.4056 22.7152 49.6973 22.0959 49.6973H20.7939Z" fill="#263238"/>
<path d="M30.0167 54.3949C32.0111 54.3949 33.2643 53.1878 33.3619 51.4124H31.4016C31.2797 52.2372 30.753 52.6999 30.0411 52.6999C29.0707 52.6999 28.4417 51.86 28.4417 50.3813C28.4417 48.9227 29.0756 48.0878 30.0411 48.0878C30.8018 48.0878 31.2894 48.6058 31.4016 49.3754H33.3619C33.2741 47.5899 31.9624 46.418 30.007 46.418C27.7346 46.418 26.3302 48.0425 26.3302 50.4115C26.3302 52.7603 27.7102 54.3949 30.0167 54.3949Z" fill="#263238"/>
<path d="M37.968 54.3949C39.821 54.3949 41.0693 53.4644 41.3619 52.031L39.4406 51.9002C39.2309 52.4887 38.6945 52.7955 38.0021 52.7955C36.9635 52.7955 36.3052 52.0863 36.3052 50.9346V50.9295H41.4058V50.3411C41.4058 47.7156 39.8649 46.418 37.8851 46.418C35.681 46.418 34.2522 48.0325 34.2522 50.4165C34.2522 52.8659 35.6615 54.3949 37.968 54.3949ZM36.3052 49.6017C36.349 48.7215 36.9976 48.0174 37.9192 48.0174C38.8213 48.0174 39.4455 48.6813 39.4504 49.6017H36.3052Z" fill="#263238"/>
<path d="M45.6649 54.244H47.7422V51.5029H48.5175L50.3657 54.244H52.8331L50.156 50.3511L52.8038 46.5186H50.3657L48.3274 49.5162H47.7422V46.5186H45.6649V54.244Z" fill="#263238"/>
<path d="M55.5582 46.5186H53.5735V54.244H55.5582V51.2112H58.1182V54.244H60.0883V46.5186H58.1182V49.5263H55.5582V46.5186Z" fill="#263238"/>
<path d="M63.5472 51.4174V46.5186H61.5626V54.244H63.6253L66.3121 49.3301V54.244H68.2919V46.5186H66.2438L63.5472 51.4174Z" fill="#263238"/>
<path d="M74.9497 46.5186H69.8198V54.244H71.8386V48.2035H74.9497V46.5186Z" fill="#263238"/>
<path d="M78.0637 51.4174V46.5186H76.079V54.244H78.1417L80.8286 49.3301V54.244H82.8083V46.5186H80.7603L78.0637 51.4174Z" fill="#263238"/>
</svg>
