<svg width="98" height="101" viewBox="0 0 98 101" fill="none" xmlns="http://www.w3.org/2000/svg">
<path fill-rule="evenodd" clip-rule="evenodd" d="M97.7781 59.2931V59.4007C97.7781 59.4174 97.7781 59.434 97.7781 59.4483C97.7781 59.515 97.7781 59.5831 97.7781 59.6507V59.6597C97.7781 59.6888 97.7781 59.7174 97.7781 59.7464C97.7781 59.8212 97.7753 59.895 97.7729 59.9693C97.7729 60.0088 97.7729 60.0483 97.7695 60.0878C97.7662 60.1273 97.7695 60.1621 97.7662 60.1993C97.7662 60.2626 97.7619 60.3264 97.7591 60.3897C97.7591 60.3997 97.7591 60.4102 97.7591 60.4202C97.7591 60.4302 97.7591 60.4311 97.7591 60.4364C97.7553 60.5288 97.7505 60.6207 97.7457 60.713L97.7424 60.7845C97.7391 60.8469 97.7348 60.9097 97.731 60.9721C97.7272 61.0345 97.7243 61.0873 97.7205 61.1445C97.7069 61.3565 97.691 61.5675 97.6729 61.7773C97.6529 62.0049 97.6307 62.2311 97.6062 62.4559C97.5894 62.6054 97.5719 62.7547 97.5538 62.9039L97.5253 63.1277C97.4815 63.4611 97.4338 63.792 97.3824 64.1206C97.3643 64.2295 97.3461 64.3382 97.3277 64.4468C97.3153 64.5191 97.3029 64.5896 97.29 64.6639C97.2638 64.8067 97.2377 64.9496 97.21 65.0925C97.1691 65.3064 97.1264 65.5186 97.082 65.7291C97.0524 65.872 97.0219 66.0086 96.991 66.1481C96.9434 66.3567 96.8958 66.5624 96.8481 66.7672C96.7656 67.1088 96.6796 67.4449 96.5901 67.7757C96.5186 68.0408 96.4451 68.3022 96.3696 68.56C96.3321 68.687 96.294 68.8139 96.2553 68.9409C96.1401 69.3219 96.0215 69.6938 95.8996 70.0566C95.8393 70.2379 95.778 70.4166 95.7158 70.5928C95.4691 71.2985 95.2144 71.9661 94.9615 72.5884C94.9192 72.6913 94.8773 72.7937 94.8353 72.8946C94.8144 72.9456 94.7934 72.9956 94.772 73.0461C94.7307 73.1454 94.689 73.2438 94.6468 73.3413C94.5423 73.5844 94.4393 73.8194 94.3377 74.046L94.2163 74.3127C94.0558 74.6636 93.8997 74.9917 93.7506 75.296C93.6763 75.4474 93.6038 75.593 93.533 75.7327C93.4801 75.8374 93.4292 75.9388 93.3782 76.0365C93.3465 76.0999 93.3136 76.1634 93.2797 76.2269L93.232 76.3184C93.2006 76.3788 93.1692 76.4374 93.1392 76.4936C93.0916 76.5788 93.0501 76.6602 93.0078 76.7374C92.9792 76.7888 92.9521 76.8388 92.9259 76.8869C92.8863 76.9593 92.8478 77.0298 92.8121 77.0912C92.7644 77.1769 92.7198 77.2553 92.6783 77.3264C92.6478 77.3798 92.6192 77.4288 92.593 77.4736C92.5759 77.5036 92.5592 77.5312 92.5454 77.5574C92.5373 77.5702 92.5302 77.5831 92.523 77.5955L92.4826 77.6617C92.4221 77.7631 92.3873 77.8155 92.3873 77.8155C87.4655 85.2357 79.7419 91.9013 70.5141 96.1583C69.5703 96.5935 68.6114 97.0031 67.6375 97.3868C63.5733 98.9863 59.2606 100.115 54.7978 100.646C53.0404 100.86 51.2725 100.977 49.5022 100.998C48.6086 101.006 47.7112 100.99 46.8099 100.95C42.6978 100.758 38.6281 100.031 34.7036 98.7882C27.6719 96.565 20.6354 92.5703 13.9374 86.3676C13.8613 86.2976 13.7865 86.2276 13.7113 86.1567C13.6046 86.0576 13.4994 85.9571 13.3946 85.8571L13.3379 85.8024C13.2392 85.7072 13.1411 85.6119 13.0437 85.5167L13.0403 85.5129C13.0051 85.4781 12.9699 85.4443 12.9351 85.4091C12.8875 85.3653 12.8456 85.321 12.8013 85.2772C12.757 85.2334 12.727 85.2034 12.6903 85.1662C12.6318 85.1081 12.5746 85.0496 12.517 84.9919C12.4818 84.9567 12.4475 84.921 12.4127 84.8857C12.3318 84.8035 12.251 84.7208 12.1703 84.6377C12.0865 84.55 12.0023 84.4624 11.9189 84.3743C11.897 84.3515 11.8751 84.3267 11.8542 84.3062L11.7637 84.211C11.7037 84.1477 11.6446 84.0843 11.5851 84.0205C11.5604 83.9943 11.5375 83.9677 11.5113 83.941L11.3508 83.7667L11.3408 83.7558C11.3361 83.7505 11.3304 83.7443 11.3256 83.7382C11.2666 83.6747 11.208 83.6112 11.1499 83.5477L11.0813 83.471C11.0109 83.3925 10.9385 83.3139 10.8709 83.2329C10.8528 83.2134 10.8356 83.1929 10.8185 83.1739L10.7504 83.0963C10.6837 83.0201 10.6175 82.9439 10.5518 82.8677C10.5247 82.8367 10.4975 82.8053 10.4713 82.7725C10.4056 82.6969 10.3407 82.6209 10.2766 82.5444L10.2428 82.5044L10.2214 82.4791L10.1661 82.4134C10.1275 82.3682 10.0899 82.3234 10.0523 82.2777C10.0437 82.2677 10.0352 82.2568 10.0266 82.2463L9.97517 82.1844L9.76755 81.9334L9.59899 81.7244L9.45089 81.5396L9.36661 81.433L9.28852 81.3344L9.28376 81.3277C9.22614 81.2554 9.16947 81.1849 9.11376 81.1097C9.08043 81.0677 9.04757 81.0254 9.01519 80.983C8.94615 80.893 8.87758 80.8035 8.80901 80.713L8.75663 80.643C8.71377 80.5863 8.67139 80.5301 8.62901 80.473C8.6152 80.454 8.60044 80.4359 8.58663 80.4168L8.57139 80.3963C8.49425 80.2925 8.41854 80.1892 8.34283 80.0854L8.33997 80.0811L8.3195 80.0535C8.24902 79.9583 8.1795 79.8602 8.11093 79.7635L8.06331 79.693C8.00427 79.6106 7.94617 79.5278 7.8876 79.4445L7.83998 79.3754L7.79237 79.3064L7.66999 79.1297L7.64523 79.093C7.57951 78.9978 7.5138 78.9026 7.44857 78.804L7.34143 78.6431L7.25381 78.5121C7.24714 78.5021 7.24048 78.4911 7.23429 78.4811C7.2281 78.4711 7.21857 78.4583 7.21143 78.4469L7.12572 78.3164L7.07572 78.2393L7.02524 78.1626L6.99858 78.1207C6.93667 78.0255 6.87477 77.9274 6.81382 77.8312C6.74477 77.7226 6.67621 77.6131 6.60811 77.504L6.58621 77.4688C6.54875 77.4082 6.51129 77.3474 6.47383 77.2864C6.44288 77.2359 6.41193 77.1859 6.38145 77.1355C6.25637 76.9291 6.1332 76.7228 6.01194 76.5164L6.00765 76.5093L5.82385 76.1917C5.82385 76.1888 5.82099 76.1869 5.82004 76.1845C5.77242 76.1026 5.7248 76.0207 5.68004 75.9388L5.63242 75.8507C5.58957 75.7746 5.54671 75.6974 5.50433 75.6208C5.48862 75.5936 5.47338 75.566 5.45671 75.5388C5.431 75.4912 5.40576 75.4436 5.38052 75.396C5.33672 75.3169 5.29386 75.237 5.25148 75.1579C5.24005 75.137 5.22815 75.1155 5.2172 75.0946C5.1872 75.0389 5.15767 74.9827 5.12815 74.926L5.08577 74.846L5.08148 74.8384C5.05196 74.7832 5.02339 74.7274 4.99434 74.6717C4.9653 74.616 4.93625 74.5598 4.90768 74.5032C4.90768 74.4974 4.90197 74.4917 4.89863 74.4855L4.86816 74.427C4.85197 74.396 4.83673 74.3646 4.82054 74.3317C4.79197 74.2751 4.76292 74.2184 4.73483 74.1617L4.70721 74.1075L4.56436 73.8217L4.39817 73.4799C4.34484 73.3689 4.29198 73.2575 4.2396 73.1465C4.22865 73.1237 4.2177 73.0989 4.2077 73.078C4.19056 73.0399 4.17294 73.0027 4.15532 72.9646C4.1377 72.9265 4.1258 72.9018 4.11151 72.8694C4.09722 72.837 4.0877 72.8175 4.0758 72.7913C4.02818 72.6837 3.9777 72.577 3.92913 72.4694C3.92247 72.4532 3.91532 72.4375 3.90818 72.4218L3.82961 72.2451L3.76628 72.1023C3.72628 72.0113 3.68676 71.9208 3.64819 71.8294C3.63628 71.8032 3.62533 71.7766 3.6139 71.7504C3.59486 71.7066 3.57676 71.6632 3.55819 71.6199C3.52867 71.5504 3.49962 71.4799 3.4701 71.4104C3.4703 71.4093 3.4703 71.4082 3.4701 71.4071C3.44089 71.3382 3.41232 71.2691 3.38439 71.1999L3.33248 71.0728C3.32153 71.0447 3.30963 71.0171 3.29867 70.989C3.2582 70.8899 3.2182 70.7904 3.17915 70.6914C3.15963 70.6437 3.14011 70.5933 3.12058 70.5433C3.09677 70.4809 3.07297 70.4185 3.0482 70.3561C3.02678 70.3004 3.00535 70.2447 2.9844 70.1885C2.97821 70.1738 2.97249 70.159 2.96678 70.1442C2.92726 70.0414 2.88916 69.9385 2.85107 69.8352C2.82821 69.7733 2.80345 69.7114 2.7825 69.6495C2.73964 69.5327 2.69726 69.4157 2.65536 69.2985C2.65563 69.2968 2.65563 69.295 2.65536 69.2933C2.61393 69.1766 2.5725 69.0604 2.5325 68.9438C2.52393 68.9176 2.51441 68.8914 2.50536 68.8657C2.47298 68.7733 2.44108 68.6809 2.41013 68.5886C2.39965 68.5562 2.38822 68.5238 2.37775 68.4933C2.37156 68.4757 2.36632 68.4581 2.36013 68.4405C2.34822 68.4057 2.33727 68.3714 2.32537 68.3367C2.31346 68.3019 2.30299 68.2686 2.29156 68.2338C2.26632 68.1586 2.24394 68.0838 2.2187 68.0086C2.20394 67.9648 2.19013 67.9205 2.17632 67.8767V67.8709C2.16823 67.8452 2.15966 67.8205 2.15204 67.7948C2.15204 67.7948 2.15204 67.7919 2.15204 67.791C2.12728 67.7114 2.10442 67.6319 2.07775 67.5529C2.07347 67.5419 2.07013 67.53 2.0668 67.5191C2.04966 67.4638 2.03299 67.4086 2.01633 67.3533C1.99966 67.2981 1.98014 67.2357 1.96204 67.1767C1.9601 67.1685 1.95772 67.1604 1.9549 67.1524C1.93442 67.0829 1.91395 67.0138 1.89347 66.9438C1.873 66.8738 1.84919 66.7948 1.82776 66.72C1.80062 66.6248 1.77395 66.5334 1.74776 66.4405C1.74395 66.4262 1.74014 66.4119 1.73586 66.3981C1.72729 66.3653 1.71776 66.3329 1.70872 66.3C1.70443 66.2853 1.70014 66.2705 1.69633 66.2558C1.67967 66.1967 1.66348 66.1386 1.64872 66.0796L1.59538 65.8805C1.57919 65.8215 1.56348 65.7624 1.54777 65.7029C1.5411 65.6772 1.53348 65.651 1.52682 65.6248C1.50301 65.5348 1.4792 65.4453 1.45729 65.3553C1.43221 65.2559 1.40729 65.1567 1.38253 65.0577C1.35777 64.9586 1.33444 64.8634 1.31254 64.772C1.31254 64.7648 1.3092 64.7577 1.3073 64.7506C1.28968 64.6782 1.27301 64.6077 1.25539 64.5339C1.25254 64.522 1.25016 64.5106 1.2473 64.4982C1.22825 64.4168 1.2092 64.3358 1.19111 64.2544C1.17492 64.1853 1.15968 64.1153 1.14349 64.0463C1.1273 63.9772 1.11016 63.8973 1.09587 63.8225C1.07683 63.7377 1.05873 63.6525 1.04064 63.5673C1.03349 63.533 1.02588 63.4977 1.01873 63.4625C0.986988 63.3123 0.956354 63.1622 0.926831 63.012C0.921593 62.9868 0.916355 62.9616 0.911593 62.9373C0.906831 62.913 0.904927 62.9035 0.901594 62.8858C0.879689 62.7763 0.858579 62.6668 0.838262 62.5573C0.82731 62.502 0.816834 62.4468 0.806834 62.392C0.787469 62.2895 0.76874 62.1876 0.750645 62.0863C0.703027 61.8144 0.655409 61.543 0.612553 61.2702L0.603982 61.2197C0.600649 61.1992 0.597792 61.1783 0.594459 61.1578C0.562713 60.9562 0.532079 60.7543 0.502556 60.5521C0.481604 60.4092 0.461605 60.2621 0.441129 60.1173C0.401448 59.8269 0.364941 59.5359 0.331608 59.2445C0.298276 58.9531 0.266531 58.662 0.236373 58.3712C0.222087 58.2258 0.208596 58.0803 0.195898 57.9346C0.138121 57.2962 0.093678 56.6565 0.0625677 56.0156L0.0497109 55.7408C0.0233624 55.1551 0.00748978 54.5688 0.00209309 53.9818C-0.00425595 53.2958 0.00383908 52.6093 0.0263782 51.9223C0.0349494 51.6528 0.0454253 51.3823 0.0582821 51.1128C0.0711389 50.8433 0.0863766 50.5728 0.103519 50.3033C0.120661 50.0338 0.139709 49.7638 0.161137 49.4938C0.182088 49.2249 0.205421 48.9551 0.231135 48.6843C0.269229 48.2805 0.312085 47.877 0.359703 47.4739C0.375417 47.3396 0.392083 47.2053 0.407321 47.071C0.416844 46.9958 0.426368 46.9206 0.436368 46.8453C0.469224 46.5901 0.504461 46.3358 0.541127 46.0806C0.565888 45.9111 0.591284 45.7414 0.617315 45.5715C0.682393 45.1471 0.753026 44.7238 0.829214 44.3016C0.905085 43.8794 0.985877 43.4579 1.07159 43.0373C1.08873 42.9535 1.10603 42.8694 1.12349 42.7849C1.18698 42.4773 1.25365 42.1704 1.32349 41.864C1.54189 40.8999 1.78649 39.942 2.05728 38.9903C2.13283 38.7233 2.21077 38.4565 2.29108 38.1898C2.34441 38.0127 2.3987 37.8356 2.45393 37.6584C2.53647 37.3933 2.62091 37.1287 2.70726 36.8646C3.53877 34.3287 4.55266 31.8563 5.74099 29.4667C5.88004 29.1861 6.02162 28.9072 6.16574 28.6301C6.52637 27.9358 6.90096 27.2504 7.28952 26.5739C7.44476 26.3038 7.60237 26.0349 7.76237 25.7673C7.92236 25.4997 8.08474 25.2338 8.2495 24.9697C15.5736 13.1962 27.3071 4.56833 41.5343 3.59598C62.6809 2.15173 68.1127 9.50058 72.745 18.7684C72.7978 18.8741 72.8512 18.9808 72.904 19.088C73.1151 19.514 73.3253 19.9425 73.5345 20.3736C74.6897 22.7545 75.8482 25.2378 77.2487 27.7068C77.5979 28.3233 77.9642 28.9385 78.3477 29.5524C78.4429 29.7077 78.5413 29.8626 78.6429 30.0172C78.6862 30.0848 78.7296 30.1529 78.7743 30.221C78.9172 30.4434 79.0662 30.6643 79.2162 30.8876C79.2915 30.9981 79.3672 31.1081 79.4434 31.2186C79.5519 31.3752 79.6619 31.531 79.7734 31.6871C79.8248 31.76 79.8772 31.83 79.9305 31.9057C79.9975 31.9987 80.0654 32.0916 80.1343 32.1843C80.3432 32.4665 80.5575 32.7476 80.7771 33.0276C80.8622 33.1362 80.9482 33.2444 81.0352 33.3523C81.1222 33.4603 81.2103 33.5685 81.2995 33.6771C81.3881 33.7852 81.4781 33.8928 81.5681 33.9999C81.6157 34.0537 81.659 34.1071 81.7052 34.1614C81.7966 34.2687 81.889 34.3755 81.9823 34.4818C82.0757 34.5879 82.17 34.6942 82.2652 34.8009C82.3604 34.9072 82.4566 35.0131 82.5538 35.1185C82.749 35.3302 82.9479 35.5409 83.1504 35.7504C83.2518 35.8551 83.3552 35.9594 83.458 36.0632C83.5875 36.1932 83.718 36.3223 83.8509 36.4513C83.9309 36.5299 84.0113 36.607 84.0928 36.6846C85.1628 37.7038 86.2975 38.6529 87.4898 39.526C87.6755 39.6619 87.8581 39.7987 88.0374 39.9365C88.2168 40.0742 88.3934 40.2128 88.5674 40.3522L88.7403 40.4912L88.9107 40.6312C88.9674 40.6788 89.0236 40.7264 89.0793 40.774C89.3107 40.968 89.5364 41.1631 89.7564 41.3593L89.894 41.4836C89.9467 41.5312 89.999 41.5788 90.0507 41.6264C90.1024 41.674 90.1544 41.7216 90.2064 41.7693L90.3597 41.9121C90.4107 41.9597 90.4612 42.0073 90.5112 42.055L90.6612 42.1978L90.8088 42.3407C90.8564 42.3883 90.904 42.4359 90.9545 42.4869C91.005 42.5378 91.0497 42.5821 91.0973 42.633C91.145 42.684 91.1926 42.7283 91.2402 42.7797C91.3354 42.8749 91.4278 42.9759 91.5197 43.074C91.5673 43.1216 91.6116 43.1726 91.6564 43.2221C91.7011 43.2716 91.7469 43.3206 91.7916 43.3706C91.9773 43.5757 92.158 43.7821 92.3335 43.9897C92.3849 44.0502 92.4354 44.1111 92.4864 44.1716C92.5797 44.284 92.6717 44.3971 92.7625 44.5111L92.864 44.6387L92.8911 44.6735C92.9387 44.7344 92.9863 44.7949 93.034 44.8558L93.0463 44.8716C93.0506 44.8782 93.0559 44.8844 93.0602 44.8901C93.0644 44.8958 93.0668 44.8992 93.0701 44.903C93.1144 44.9601 93.1573 45.0173 93.2001 45.0739L93.2401 45.1277C93.2425 45.1303 93.2447 45.133 93.2468 45.1358C93.2597 45.1539 93.273 45.1716 93.2863 45.1896L93.363 45.293L93.4144 45.3639C93.4301 45.3849 93.4454 45.4063 93.462 45.4273C93.4863 45.4601 93.5097 45.493 93.533 45.5254C93.5501 45.5487 93.5663 45.573 93.5806 45.5958C93.5901 45.6092 93.5992 45.622 93.6087 45.6344C93.6358 45.6734 93.6639 45.7125 93.6906 45.7515C93.6958 45.7601 93.7016 45.7677 93.7073 45.7753C93.7482 45.8353 93.7897 45.8944 93.8297 45.9539L93.903 46.0606L93.9592 46.1449L94.003 46.211L94.0815 46.3306C94.092 46.3472 94.1035 46.3634 94.1139 46.3782C94.1196 46.3863 94.1244 46.3944 94.1301 46.4025C94.1544 46.441 94.1777 46.4796 94.2044 46.5182L94.2111 46.5287L94.2673 46.6172C94.2996 46.6677 94.3311 46.7187 94.3625 46.7691C94.3773 46.7925 94.392 46.8167 94.4063 46.8401C94.4206 46.8634 94.4406 46.8953 94.4568 46.9225L94.5292 47.041C94.5334 47.0482 94.5377 47.0563 94.5425 47.0634L94.6425 47.232C94.653 47.2505 94.6644 47.2691 94.6749 47.2872C94.7101 47.3477 94.7453 47.4077 94.7796 47.4682C94.7796 47.4682 94.7796 47.4682 94.7796 47.4724L94.8006 47.5091L94.8063 47.5191C94.8415 47.5826 94.8764 47.6447 94.911 47.7053L94.9282 47.7362C94.9663 47.8048 95.0041 47.8735 95.0415 47.9424C95.0577 47.972 95.073 48.001 95.0891 48.0305C95.1053 48.06 95.1206 48.0891 95.1368 48.1186C95.1434 48.1315 95.151 48.1448 95.1577 48.1581C95.1644 48.1715 95.1653 48.1724 95.1691 48.1805C95.2044 48.2472 95.2396 48.3138 95.2734 48.381C95.2829 48.3981 95.292 48.4162 95.3006 48.4334C95.3272 48.4857 95.3534 48.5381 95.3796 48.591C95.3877 48.6067 95.3953 48.6229 95.4039 48.6386C95.4315 48.6943 95.4596 48.7505 95.4863 48.8067L95.5148 48.8648L95.5253 48.8862C95.5253 48.8891 95.5282 48.8919 95.5291 48.8948L95.5344 48.9053C95.5591 48.9581 95.5844 49.0105 95.6091 49.0634L95.6229 49.0919C95.6339 49.1167 95.6449 49.1395 95.6568 49.1657C95.6687 49.1919 95.6744 49.2029 95.6829 49.2219C95.6915 49.241 95.7001 49.2595 95.7091 49.2786C95.7225 49.3091 95.7367 49.34 95.751 49.371C95.7519 49.374 95.7532 49.3769 95.7548 49.3795C95.7691 49.4119 95.7839 49.4443 95.7977 49.4748C95.8072 49.4957 95.8167 49.5167 95.8253 49.5372C95.8339 49.5576 95.8406 49.5719 95.8482 49.5891C95.8558 49.6062 95.8596 49.6143 95.8648 49.6271L95.9282 49.7729C95.9386 49.7976 95.9486 49.8205 95.9586 49.8462C95.961 49.851 95.9629 49.8562 95.9653 49.861C95.9958 49.9338 96.0267 50.0076 96.0567 50.0809C96.0615 50.0928 96.0667 50.1052 96.072 50.1171C96.0872 50.1548 96.1025 50.1919 96.1172 50.23C96.132 50.2681 96.1448 50.2976 96.1582 50.3319C96.1629 50.3452 96.1686 50.359 96.1744 50.3728C96.1891 50.4119 96.2048 50.4514 96.222 50.4909L96.2496 50.5647C96.2512 50.568 96.2526 50.5713 96.2539 50.5747C96.2561 50.58 96.258 50.5854 96.2596 50.5909C96.2691 50.6152 96.2786 50.6385 96.2882 50.6657C96.2977 50.6928 96.3039 50.7062 96.311 50.7271C96.3277 50.7714 96.3444 50.8152 96.3586 50.86C96.3653 50.8785 96.3729 50.8971 96.3796 50.9162C96.3896 50.9433 96.3996 50.9714 96.4091 50.999C96.4163 51.0181 96.4234 51.0376 96.4301 51.0571L96.4401 51.0862C96.4639 51.1533 96.4877 51.2209 96.511 51.2885C96.5124 51.2919 96.5135 51.2954 96.5143 51.299C96.5239 51.3257 96.5324 51.3523 96.542 51.3795L96.5729 51.4719C96.5801 51.4933 96.5872 51.5152 96.5948 51.5366C96.5991 51.5495 96.6029 51.5623 96.6072 51.5752C96.6115 51.5881 96.6139 51.5942 96.6167 51.6038C96.6167 51.6052 96.6167 51.6066 96.6167 51.608C96.6305 51.649 96.6429 51.6895 96.6558 51.7299C96.6562 51.7325 96.6562 51.7351 96.6558 51.7376C96.6591 51.7466 96.6624 51.7561 96.6653 51.7661L96.6701 51.7823C96.6758 51.799 96.6815 51.8166 96.6862 51.8338C96.7067 51.8971 96.7267 51.9609 96.7462 52.0242L96.7577 52.0628C96.7767 52.1242 96.7953 52.1861 96.8129 52.2471L96.8329 52.3156C96.8515 52.3799 96.8696 52.4437 96.8881 52.5061C96.8924 52.5223 96.8977 52.539 96.9019 52.5537C96.92 52.618 96.9377 52.6818 96.9548 52.7442C96.9767 52.8252 96.9977 52.9056 97.0186 52.9866C97.0367 53.058 97.0553 53.1294 97.0729 53.2009C97.0728 53.2024 97.0728 53.204 97.0729 53.2056C97.0858 53.257 97.0981 53.309 97.1105 53.3613C97.1105 53.3613 97.1105 53.3642 97.1105 53.3651C97.1153 53.387 97.121 53.4085 97.1253 53.4304C97.1286 53.4432 97.1315 53.4561 97.1348 53.469C97.1381 53.4818 97.1434 53.5042 97.1472 53.5213C97.1615 53.5847 97.1767 53.6485 97.1905 53.7118C97.2 53.7532 97.2091 53.7951 97.2177 53.8361C97.218 53.8377 97.218 53.8393 97.2177 53.8408C97.2253 53.8747 97.2324 53.9094 97.24 53.9432L97.2434 53.9599C97.2505 53.9937 97.2577 54.0275 97.2643 54.0613C97.271 54.0951 97.2781 54.127 97.2848 54.1604C97.2877 54.1723 97.29 54.1846 97.2919 54.1965C97.3029 54.2489 97.3134 54.3008 97.3234 54.3532C97.3291 54.3804 97.3338 54.4084 97.3391 54.4356C97.3486 54.4832 97.3572 54.5308 97.3662 54.5784C97.3705 54.6008 97.3748 54.6261 97.3786 54.6461C97.3881 54.6965 97.3967 54.7475 97.4057 54.798C97.411 54.8261 97.4157 54.8546 97.4205 54.8822C97.4205 54.8951 97.4248 54.908 97.4272 54.9208C97.4296 54.9337 97.431 54.9437 97.4324 54.9546C97.4377 54.9832 97.4424 55.0118 97.4472 55.0399C97.4538 55.0808 97.4605 55.1213 97.4667 55.1618C97.4696 55.177 97.4715 55.1922 97.4738 55.2094C97.4819 55.2627 97.4905 55.3165 97.4981 55.3694C97.5034 55.3994 97.5077 55.4294 97.5115 55.4589C97.5191 55.5065 97.5257 55.5541 97.5319 55.5989C97.5319 55.6151 97.5367 55.6313 97.5386 55.6465C97.5491 55.7222 97.5591 55.7979 97.5691 55.8741C97.5791 55.9503 97.5886 56.026 97.5976 56.1022C97.6 56.1227 97.6024 56.1441 97.6048 56.1651C97.6143 56.2413 97.6224 56.3179 97.631 56.3936C97.6381 56.4613 97.6453 56.5289 97.6519 56.597C97.6519 56.6017 97.6519 56.607 97.6519 56.6117L97.6553 56.6417V56.6622C97.6676 56.7841 97.6781 56.906 97.6881 57.0279C97.6919 57.0755 97.6962 57.1231 97.7 57.1741C97.7 57.2017 97.7043 57.2298 97.7062 57.2569C97.7081 57.2841 97.7105 57.3155 97.7129 57.3446C97.7162 57.3955 97.72 57.4465 97.7229 57.4969C97.7231 57.4987 97.7231 57.5004 97.7229 57.5022C97.7229 57.5241 97.7257 57.5455 97.7267 57.5674C97.7291 57.5984 97.7305 57.6293 97.7324 57.6598C97.7353 57.7012 97.7372 57.7417 97.7391 57.7831C97.7391 57.7946 97.7391 57.8065 97.7391 57.8174C97.7429 57.8926 97.7467 57.9684 97.7495 58.0436L97.7543 58.1574C97.7543 58.1779 97.7543 58.1979 97.7543 58.2179C97.7543 58.2379 97.7543 58.2603 97.7572 58.2817C97.7574 58.2842 97.7574 58.2868 97.7572 58.2893C97.7572 58.3445 97.761 58.3998 97.7619 58.455C97.7629 58.5102 97.7648 58.5536 97.7657 58.6031C97.7667 58.6526 97.7686 58.705 97.7691 58.7555V58.7593C97.7691 58.7902 97.7691 58.8202 97.7691 58.8507C97.7691 58.898 97.7691 58.9447 97.7691 58.9907V59.0383C97.7781 59.1274 97.7791 59.2107 97.7781 59.2931Z" fill="#F6F2FF"/>
<path fill-rule="evenodd" clip-rule="evenodd" d="M97.7781 59.2929V59.4005C97.7781 59.4172 97.7781 59.4338 97.7781 59.4481C97.7781 59.5148 97.7781 59.5829 97.7781 59.6505V59.6595C97.7781 59.6886 97.7781 59.7172 97.7781 59.7462C97.7781 59.821 97.7753 59.8948 97.7729 59.9691C97.7729 60.0086 97.7729 60.0481 97.7695 60.0876C97.7662 60.1272 97.7695 60.1619 97.7662 60.1991C97.7662 60.2624 97.7619 60.3262 97.7591 60.3895C97.7591 60.3995 97.7591 60.41 97.7591 60.42C97.7591 60.43 97.7591 60.431 97.7591 60.4362C97.7553 60.5286 97.7505 60.6205 97.7457 60.7129L97.7424 60.7843C97.7391 60.8467 97.7348 60.9095 97.731 60.9719C97.7272 61.0343 97.7243 61.0871 97.7205 61.1443C97.7068 61.3563 97.691 61.5673 97.6729 61.7771C97.6529 62.0047 97.6307 62.2309 97.6062 62.4557C97.5894 62.6052 97.5719 62.7545 97.5538 62.9037L97.5253 63.1276C97.4815 63.4609 97.4338 63.7918 97.3824 64.1204C97.3643 64.2293 97.3461 64.338 97.3276 64.4466C97.3153 64.5189 97.3029 64.5894 97.29 64.6637C97.2638 64.8066 97.2376 64.9494 97.21 65.0923C97.1691 65.3062 97.1264 65.5184 97.0819 65.7289C97.0524 65.8718 97.0219 66.0084 96.991 66.1479C96.9434 66.3565 96.8958 66.5622 96.8481 66.767C96.7656 67.1086 96.6796 67.4447 96.59 67.7755C96.5186 68.0406 96.4451 68.302 96.3696 68.5598C96.3321 68.6868 96.294 68.8137 96.2553 68.9407C96.1401 69.3217 96.0215 69.6936 95.8996 70.0564C95.8393 70.2377 95.778 70.4164 95.7158 70.5926C95.4691 71.2983 95.2144 71.9659 94.9615 72.5883C94.9191 72.6911 94.8772 72.7935 94.8353 72.8944C94.8144 72.9454 94.7934 72.9954 94.772 73.0459C94.7307 73.1452 94.689 73.2436 94.6468 73.3411C94.5423 73.5843 94.4393 73.8192 94.3377 74.0458L94.2163 74.3125C94.0558 74.6634 93.8996 74.9915 93.7506 75.2958C93.6763 75.4472 93.6038 75.5928 93.533 75.7325C93.4801 75.8372 93.4292 75.9386 93.3782 76.0363C93.3465 76.0998 93.3136 76.1632 93.2797 76.2267L93.232 76.3182C93.2006 76.3786 93.1692 76.4372 93.1392 76.4934C93.0916 76.5786 93.0501 76.66 93.0078 76.7372C92.9792 76.7886 92.952 76.8386 92.9259 76.8867C92.8863 76.9591 92.8478 77.0296 92.812 77.091C92.7644 77.1767 92.7198 77.2551 92.6782 77.3262C92.6478 77.3796 92.6192 77.4286 92.593 77.4734C92.5759 77.5034 92.5592 77.531 92.5454 77.5572C92.5373 77.57 92.5302 77.5829 92.523 77.5953L92.4825 77.6615C92.4221 77.7629 92.3873 77.8153 92.3873 77.8153C87.4655 85.2355 79.7419 91.9011 70.5141 96.1581C69.5703 96.5933 68.6114 97.0028 67.6375 97.3867C63.5733 98.9861 59.2605 100.115 54.7978 100.646C53.0404 100.86 51.2725 100.977 49.5022 100.998C48.6086 101.006 47.7112 100.99 46.8099 100.95C42.6978 100.758 38.6281 100.031 34.7036 98.788C27.6718 96.5648 20.6354 92.5701 13.9374 86.3674C13.8613 86.2974 13.7865 86.2274 13.7113 86.1565C13.6046 86.0574 13.4994 85.9569 13.3946 85.8569L13.3379 85.8022C13.2392 85.707 13.1411 85.6117 13.0437 85.5165L13.0403 85.5127C13.0051 85.4779 12.9698 85.4441 12.9351 85.4089C12.8875 85.3651 12.8456 85.3208 12.8013 85.277C12.757 85.2332 12.727 85.2032 12.6903 85.166C12.6318 85.1079 12.5746 85.0494 12.517 84.9917C12.4818 84.9565 12.4475 84.9208 12.4127 84.8856C12.3318 84.8033 12.251 84.7206 12.1703 84.6375C12.0865 84.5498 12.0023 84.4622 11.9189 84.3741C11.897 84.3513 11.8751 84.3265 11.8542 84.306L11.7637 84.2108C11.7037 84.1475 11.6446 84.0841 11.5851 84.0203C11.5604 83.9941 11.5375 83.9675 11.5113 83.9408L11.3508 83.7665L11.3408 83.7556L11.1504 83.5451L11.0818 83.4684C11.0113 83.3899 10.9389 83.3113 10.8713 83.2304C10.8532 83.2108 10.8361 83.1904 10.819 83.1713L10.7509 83.0937C10.6842 83.0175 10.618 82.9413 10.5523 82.8651C10.5252 82.8342 10.498 82.8027 10.4718 82.7699C10.4061 82.6943 10.3412 82.6183 10.2771 82.5418C10.2585 82.5204 10.2399 82.4985 10.2218 82.4766L10.1666 82.4109C10.128 82.3656 10.0904 82.3209 10.0528 82.2751C10.0442 82.2651 10.0356 82.2542 10.0271 82.2437L9.97564 82.1818L9.76803 81.9309L9.59946 81.7218L9.45137 81.5371L9.36709 81.4304L9.28899 81.3318L9.28423 81.3252C9.22661 81.2528 9.16995 81.1823 9.11424 81.1071C9.0809 81.0652 9.04805 81.0228 9.01567 80.9804C8.94662 80.8904 8.87805 80.8009 8.80948 80.7104L8.7571 80.6404C8.71425 80.5838 8.67187 80.5276 8.62949 80.4704C8.61568 80.4514 8.60092 80.4333 8.58711 80.4142L8.57187 80.3938C8.49473 80.29 8.41902 80.1866 8.3433 80.0828C8.33521 80.0723 8.32759 80.0614 8.31997 80.0509C8.2495 79.9557 8.17997 79.8576 8.11141 79.7609L8.06379 79.6904C8.00474 79.6081 7.94665 79.5252 7.88808 79.4419L7.84046 79.3728L7.79284 79.3038L7.67046 79.1271L7.66761 79.1224C7.65999 79.1119 7.65285 79.1009 7.6457 79.0905C7.57999 78.9952 7.51428 78.9 7.44904 78.8014L7.3419 78.6405L7.25428 78.5095C7.24762 78.4995 7.24095 78.4886 7.23476 78.4786C7.22857 78.4686 7.21905 78.4557 7.2119 78.4443L7.12619 78.3138L7.07619 78.2367C7.06381 78.2181 7.05096 78.1986 7.03858 78.1791C7.03429 78.1724 7.03048 78.1662 7.02572 78.16L6.99905 78.1181C6.93715 78.0229 6.87525 77.9248 6.8143 77.8286C6.74525 77.72 6.67668 77.6105 6.60859 77.5015L6.58668 77.4662C6.54922 77.4056 6.51176 77.3448 6.47431 77.2838C6.44335 77.2334 6.4124 77.1834 6.38193 77.1329C6.25685 76.9266 6.13368 76.7202 6.01241 76.5139L6.00813 76.5067L5.82432 76.1891C5.82432 76.1863 5.82146 76.1844 5.82051 76.182C5.77289 76.1001 5.72528 76.0182 5.68052 75.9363L5.6329 75.8482C5.59004 75.772 5.54719 75.6948 5.50481 75.6182C5.48909 75.591 5.47386 75.5634 5.45719 75.5363C5.43148 75.4887 5.40624 75.441 5.381 75.3934C5.33719 75.3144 5.29434 75.2344 5.25196 75.1553C5.24053 75.1344 5.22862 75.1129 5.21767 75.092C5.18767 75.0363 5.15815 74.9801 5.12863 74.9234L5.08625 74.8434L5.08196 74.8358C5.05244 74.7806 5.02387 74.7249 4.99482 74.6692C4.96577 74.6134 4.93673 74.5572 4.90816 74.5006C4.90816 74.4949 4.90244 74.4892 4.89911 74.483L4.86863 74.4244C4.85244 74.3934 4.8372 74.362 4.82101 74.3292C4.79244 74.2725 4.7634 74.2158 4.7353 74.1592L4.70768 74.1049L4.56483 73.8192L4.39864 73.4773C4.34531 73.3663 4.29246 73.2549 4.24008 73.144C4.24008 73.1406 4.23722 73.1378 4.23627 73.1344C4.22674 73.1149 4.2177 73.0949 4.20817 73.0754C4.19103 73.0373 4.17341 73.0001 4.15579 72.9621C4.13818 72.924 4.12627 72.8992 4.11199 72.8668C4.0977 72.8344 4.08818 72.8149 4.07627 72.7887C4.02865 72.6811 3.97818 72.5744 3.92961 72.4668C3.92294 72.4506 3.9158 72.4349 3.90866 72.4192L3.83009 72.2425L3.76676 72.0997C3.72676 72.0087 3.68724 71.9183 3.64866 71.8268C3.63676 71.8007 3.62581 71.774 3.61438 71.7478C3.59533 71.704 3.57724 71.6607 3.55867 71.6173C3.52914 71.5478 3.5001 71.4773 3.47057 71.4078C3.47078 71.4067 3.47078 71.4056 3.47057 71.4045C3.44137 71.3356 3.4128 71.2665 3.38486 71.1973L3.33296 71.0702C3.32201 71.0421 3.3101 71.0145 3.29915 70.9864C3.25867 70.8873 3.21868 70.7878 3.17963 70.6888C3.16011 70.6412 3.14058 70.5907 3.12106 70.5407C3.09725 70.4783 3.07344 70.4159 3.04868 70.3535C3.02725 70.2978 3.00582 70.2421 2.98487 70.1859C2.97868 70.1712 2.97297 70.1564 2.96725 70.1417L2.91964 70.0183C2.8963 69.9564 2.87202 69.8945 2.85011 69.8326C2.82821 69.7707 2.8025 69.7088 2.78154 69.6469C2.73869 69.5301 2.69631 69.4131 2.6544 69.296C2.65467 69.2942 2.65467 69.2925 2.6544 69.2907C2.61298 69.1741 2.57155 69.0579 2.53155 68.9412C2.52298 68.915 2.51346 68.8888 2.50441 68.8631C2.48441 68.805 2.46441 68.7469 2.44489 68.6884C2.44012 68.675 2.43584 68.6622 2.43155 68.6488C2.41298 68.5955 2.39536 68.5422 2.37727 68.4888C2.37108 68.4712 2.36584 68.4536 2.35965 68.436C2.35346 68.4184 2.34394 68.3884 2.33632 68.3646C2.30457 68.2731 2.27441 68.1814 2.24584 68.0893C2.23632 68.0612 2.2268 68.0327 2.21823 68.0041C2.20346 67.9603 2.18966 67.916 2.17585 67.8722V67.8665C2.16775 67.8408 2.15918 67.816 2.15156 67.7903C2.15156 67.7903 2.15156 67.7874 2.15156 67.7865C2.1268 67.707 2.10394 67.6274 2.07728 67.5484C2.07299 67.5374 2.06966 67.5255 2.06632 67.5146C2.04918 67.4593 2.03252 67.4041 2.01585 67.3489C1.99918 67.2936 1.97966 67.2313 1.96157 67.1722C1.95963 67.164 1.95724 67.1559 1.95442 67.1479C1.93395 67.0784 1.91347 67.0094 1.893 66.9394C1.87252 66.8694 1.84871 66.7903 1.82728 66.7155C1.80586 66.6408 1.78395 66.566 1.76348 66.4913C1.75395 66.4579 1.7449 66.426 1.73538 66.396C1.72586 66.366 1.71729 66.3308 1.70824 66.2979C1.70395 66.2832 1.69967 66.2684 1.69586 66.2537C1.67919 66.1946 1.663 66.1365 1.64824 66.0775L1.59491 65.8784C1.57872 65.8194 1.563 65.7603 1.54729 65.7008C1.54062 65.6751 1.53301 65.6489 1.52634 65.6227C1.5092 65.5565 1.49205 65.4894 1.47539 65.4232C1.47299 65.4171 1.47123 65.4107 1.47015 65.4042C1.46586 65.387 1.4611 65.3699 1.45729 65.3532C1.43221 65.2538 1.40729 65.1546 1.38253 65.0556C1.35777 64.9566 1.33444 64.8613 1.31254 64.7699C1.31254 64.7627 1.3092 64.7556 1.3073 64.7485C1.28968 64.6761 1.27301 64.6056 1.25539 64.5318C1.25254 64.5199 1.25016 64.5085 1.2473 64.4961C1.22825 64.4147 1.2092 64.3337 1.19111 64.2523C1.17492 64.1832 1.15968 64.1132 1.14349 64.0442C1.1273 63.9751 1.11016 63.8951 1.09587 63.8204C1.07683 63.7356 1.05873 63.6504 1.04064 63.5652C1.03349 63.5309 1.02588 63.4956 1.01873 63.4604C1.00635 63.4009 0.993496 63.3414 0.981115 63.2818C0.957306 63.1656 0.933497 63.0504 0.911593 62.9352C0.90826 62.918 0.904927 62.9014 0.901593 62.8837C0.886356 62.8109 0.872546 62.7376 0.858737 62.6642C0.851595 62.628 0.844928 62.5914 0.838262 62.5552C0.82731 62.5 0.816834 62.4447 0.806834 62.3899C0.787469 62.2874 0.76874 62.1855 0.750645 62.0842C0.708741 61.85 0.668742 61.6147 0.630648 61.3805C0.623982 61.3428 0.618744 61.3057 0.612553 61.2681L0.603982 61.2176C0.600649 61.1971 0.597792 61.1762 0.594459 61.1557C0.562713 60.9541 0.532079 60.7522 0.502556 60.55C0.481604 60.4071 0.461605 60.26 0.441129 60.1152C0.402559 59.8243 0.365417 59.5334 0.331608 59.2424C0.2978 58.9515 0.266372 58.6605 0.236373 58.3691C0.222087 58.2237 0.208596 58.0782 0.195898 57.9324C0.139074 57.2941 0.0946304 56.6544 0.0625677 56.0135L0.0497109 55.7387C0.0246322 55.153 0.00875958 54.5667 0.00209309 53.9797C-0.00425595 53.2937 0.00383908 52.6072 0.0263782 51.9202C0.0349494 51.6507 0.0454253 51.3802 0.0582821 51.1107C0.0711389 50.8412 0.0863766 50.5707 0.103519 50.3012C0.120661 50.0317 0.139709 49.7617 0.161137 49.4917C0.182406 49.2222 0.205739 48.9524 0.231135 48.6822C0.269546 48.2784 0.312402 47.8749 0.359703 47.4718C0.375417 47.3375 0.392083 47.2032 0.407321 47.0689C0.416844 46.9937 0.426368 46.9185 0.436367 46.8432C0.469224 46.588 0.504461 46.3337 0.541127 46.0785C0.565888 45.909 0.591284 45.7393 0.617315 45.5694C0.683028 45.145 0.753661 44.7217 0.829214 44.2995C0.905085 43.8773 0.985877 43.4558 1.07159 43.0352C1.08873 42.9514 1.10603 42.8673 1.12349 42.7828C1.18698 42.4752 1.25365 42.1683 1.32349 41.8619C1.54189 40.8978 1.78649 39.9399 2.05728 38.9882C2.13299 38.721 2.21156 38.4539 2.29108 38.1877C2.34441 38.0106 2.3987 37.8335 2.45393 37.6563C2.53647 37.3912 2.62091 37.1266 2.70726 36.8625C3.53877 34.3266 4.55266 31.8542 5.74099 29.4646C5.88003 29.184 6.02162 28.9051 6.16574 28.628C6.52637 27.9337 6.90096 27.2483 7.28952 26.5718C7.44476 26.3017 7.60237 26.0328 7.76237 25.7652C7.92236 25.4976 8.08474 25.2317 8.2495 24.9676C25.5505 22.8205 40.8544 34.6021 56.264 35.2559C76.0915 36.0968 72.7716 18.9468 72.7335 18.7559C72.7869 18.8611 72.8392 18.9668 72.8921 19.073C73.1032 19.499 73.3134 19.9276 73.5226 20.3587C74.6778 22.7396 75.8363 25.2228 77.2367 27.6918C77.5859 28.3083 77.9523 28.9235 78.3358 29.5375C78.431 29.6927 78.5294 29.8476 78.631 30.0022C78.6743 30.0698 78.7177 30.1379 78.7624 30.206C78.9065 30.4283 79.0538 30.6505 79.2043 30.8727C79.2786 30.9832 79.3548 31.0932 79.4314 31.2036C79.54 31.3603 79.65 31.516 79.7614 31.6722C79.8129 31.745 79.8652 31.815 79.9186 31.8908C79.9856 31.9838 80.0535 32.0766 80.1224 32.1693C80.3313 32.4515 80.5455 32.7326 80.7652 33.0126C80.8503 33.1212 80.9363 33.2294 81.0233 33.3374C81.1103 33.4453 81.1984 33.5536 81.2876 33.6621C81.3762 33.7701 81.4657 33.8777 81.5562 33.985C81.6038 34.0388 81.6471 34.0921 81.6933 34.1464C81.7847 34.2537 81.8771 34.3605 81.9704 34.4669C82.0638 34.5729 82.158 34.6792 82.2533 34.7859C82.3485 34.8923 82.4447 34.9981 82.5418 35.1035C82.7371 35.3153 82.936 35.5259 83.1385 35.7354C83.2399 35.8402 83.3433 35.9445 83.4461 36.0483C83.5756 36.1783 83.7061 36.3073 83.839 36.4363C83.9189 36.5149 83.9994 36.5921 84.0809 36.6697C85.1509 37.6889 86.2856 38.638 87.4779 39.511C87.6636 39.6469 87.8462 39.7837 88.0255 39.9215C88.2049 40.0593 88.3815 40.1978 88.5555 40.3372L88.7283 40.4762L88.8988 40.6162C88.9555 40.6639 89.0117 40.7115 89.0674 40.7591C89.2988 40.9531 89.5245 41.1481 89.7445 41.3443L89.8821 41.4686C89.9348 41.5162 89.987 41.5638 90.0388 41.6115C90.0905 41.6591 90.1424 41.7067 90.1945 41.7543L90.3478 41.8972C90.3988 41.9448 90.4492 41.9924 90.4993 42.04L90.6492 42.1829L90.7969 42.3257C90.8445 42.3733 90.8921 42.421 90.9426 42.4719C90.9931 42.5229 91.0378 42.5671 91.0854 42.6181C91.133 42.669 91.1807 42.7133 91.2283 42.7648C91.3235 42.86 91.4159 42.9609 91.5078 43.059C91.5554 43.1066 91.5997 43.1576 91.6445 43.2071C91.6892 43.2566 91.7349 43.3057 91.7797 43.3557C91.9654 43.5608 92.146 43.7671 92.3216 43.9747C92.373 44.0352 92.4235 44.0961 92.4744 44.1566C92.5678 44.269 92.6598 44.3822 92.7506 44.4961L92.852 44.6238L92.8792 44.6585C92.9268 44.7195 92.9744 44.7799 93.022 44.8409L93.0482 44.8752C93.0525 44.8799 93.0549 44.8842 93.0582 44.888C93.1025 44.9452 93.1454 45.0023 93.1882 45.059L93.2282 45.1128C93.2306 45.1154 93.2328 45.1181 93.2349 45.1209C93.2478 45.139 93.2611 45.1566 93.2744 45.1747C93.2878 45.1928 93.3006 45.2104 93.3135 45.228L93.3511 45.2756L93.4025 45.3466C93.4182 45.3675 93.4335 45.389 93.4501 45.4099C93.4744 45.4428 93.4977 45.4756 93.5211 45.508C93.5382 45.5313 93.5544 45.5556 93.5687 45.5785C93.5782 45.5918 93.5873 45.6047 93.5968 45.6171C93.6239 45.6561 93.652 45.6952 93.6787 45.7342C93.6839 45.7428 93.6897 45.7504 93.6954 45.758C93.7363 45.818 93.7777 45.8771 93.8177 45.9366L93.8911 46.0432L93.9473 46.1275L93.9911 46.1937L94.0696 46.3132C94.0801 46.3299 94.0915 46.3461 94.102 46.3608C94.1077 46.3689 94.1125 46.377 94.1182 46.3851C94.1425 46.4237 94.1658 46.4623 94.1925 46.5008L94.1992 46.5113L94.2553 46.5999C94.2877 46.6504 94.3192 46.7013 94.3506 46.7518C94.3653 46.7751 94.3801 46.7994 94.3944 46.8227C94.4087 46.8461 94.4287 46.878 94.4449 46.9051L94.5173 47.0237C94.5215 47.0308 94.5258 47.0389 94.5306 47.0461L94.6306 47.2146C94.641 47.2332 94.6525 47.2518 94.663 47.2699C94.6982 47.3303 94.7334 47.3903 94.7677 47.4508C94.7677 47.4508 94.7677 47.4508 94.7677 47.4551L94.7887 47.4918L94.7944 47.5018C94.8296 47.5653 94.8645 47.6273 94.8991 47.688L94.9163 47.7189C94.9544 47.7875 94.9922 47.8562 95.0296 47.9251L95.0525 47.9684L95.1444 48.1408C95.1482 48.1479 95.152 48.1551 95.1558 48.1632C95.191 48.2298 95.2263 48.2965 95.2601 48.3637C95.2939 48.4308 95.3287 48.4975 95.3615 48.5646C95.3615 48.5675 95.3648 48.5703 95.3663 48.5736C95.3744 48.5894 95.382 48.6056 95.3905 48.6213C95.4182 48.677 95.4463 48.7332 95.4729 48.7894L95.5015 48.8474L95.512 48.8689C95.512 48.8717 95.5148 48.8746 95.5158 48.8774L95.521 48.8879C95.5458 48.9408 95.571 48.9932 95.5958 49.046L95.6096 49.0746C95.6205 49.0993 95.6315 49.1222 95.6434 49.1484C95.6491 49.1593 95.6539 49.1708 95.6591 49.1827C95.671 49.2089 95.6834 49.2351 95.6958 49.2612C95.7082 49.2874 95.7234 49.3227 95.7377 49.3536C95.7386 49.3566 95.7398 49.3595 95.7415 49.3622C95.7558 49.3946 95.7705 49.427 95.7844 49.4574C95.7939 49.4784 95.8034 49.4993 95.812 49.5198C95.8205 49.5403 95.8272 49.5546 95.8348 49.5717C95.8425 49.5889 95.8463 49.597 95.8515 49.6098C95.8832 49.6825 95.915 49.7555 95.9467 49.8289C95.9491 49.8336 95.951 49.8389 95.9534 49.8436C95.9839 49.9165 96.0148 49.9903 96.0448 50.0636C96.0496 50.0755 96.0548 50.0879 96.0601 50.0998C96.0843 50.1598 96.1077 50.2198 96.1315 50.2793C96.1367 50.2912 96.141 50.3027 96.1462 50.3146C96.1515 50.3265 96.1567 50.3417 96.1624 50.3555C96.1867 50.4179 96.2101 50.4798 96.2343 50.5422C96.2345 50.5439 96.2345 50.5457 96.2343 50.5474C96.236 50.5506 96.2374 50.554 96.2386 50.5574C96.2409 50.5627 96.2428 50.5681 96.2443 50.5736C96.2539 50.5979 96.2634 50.6212 96.2729 50.6484C96.2824 50.6755 96.2886 50.6888 96.2958 50.7098C96.3124 50.7541 96.3291 50.7979 96.3434 50.8426C96.3501 50.8612 96.3577 50.8798 96.3643 50.8988C96.3743 50.926 96.3843 50.9541 96.3939 50.9817C96.401 51.0007 96.4081 51.0202 96.4148 51.0398L96.4248 51.0688C96.4486 51.136 96.4724 51.2036 96.4958 51.2712C96.4972 51.2746 96.4983 51.2781 96.4991 51.2817C96.5191 51.3388 96.5386 51.3969 96.5577 51.4545C96.5648 51.476 96.572 51.4979 96.5796 51.5193C96.5839 51.5321 96.5877 51.545 96.5919 51.5579C96.5962 51.5707 96.5986 51.5769 96.6015 51.5864C96.6014 51.5879 96.6014 51.5893 96.6015 51.5907C96.6126 51.6225 96.6231 51.6553 96.6329 51.6893C96.6358 51.6974 96.6386 51.705 96.6405 51.7126C96.641 51.7151 96.641 51.7177 96.6405 51.7202C96.6439 51.7302 96.6467 51.7398 96.65 51.7488L96.6548 51.765C96.6605 51.7817 96.6662 51.7993 96.671 51.8164C96.6915 51.8798 96.7115 51.9436 96.731 52.0069L96.7424 52.0455C96.7615 52.1069 96.78 52.1688 96.7977 52.2297L96.8177 52.2983C96.8362 52.3626 96.8543 52.4264 96.8729 52.4888C96.8772 52.505 96.8824 52.5216 96.8867 52.5364C96.9048 52.6007 96.9224 52.6645 96.9396 52.7269C96.9615 52.8078 96.9824 52.8883 97.0034 52.9692C97.0215 53.0407 97.04 53.1121 97.0577 53.1835C97.0575 53.1851 97.0575 53.1867 97.0577 53.1883C97.0705 53.2397 97.0829 53.2916 97.0953 53.344C97.0953 53.344 97.0953 53.3469 97.0953 53.3478C97.1 53.3697 97.1058 53.3911 97.11 53.413C97.1134 53.4259 97.1162 53.4388 97.1196 53.4516C97.1229 53.4645 97.1281 53.4869 97.1319 53.504C97.1462 53.5673 97.1615 53.6311 97.1753 53.6945C97.1848 53.7359 97.1938 53.7778 97.2024 53.8187C97.2028 53.8203 97.2028 53.8219 97.2024 53.8235C97.21 53.8573 97.2172 53.8921 97.2248 53.9259L97.2281 53.9426C97.2353 53.9764 97.2424 54.0102 97.2491 54.044C97.2558 54.0778 97.2629 54.1097 97.2696 54.143C97.2724 54.1549 97.2748 54.1673 97.2767 54.1792C97.2929 54.2592 97.3088 54.3386 97.3243 54.4173C97.3338 54.4649 97.3424 54.5125 97.3515 54.5602C97.3557 54.5825 97.36 54.6078 97.3638 54.6278C97.3734 54.6782 97.3819 54.7292 97.391 54.7797C97.3962 54.8078 97.401 54.8363 97.4057 54.864C97.4057 54.8768 97.41 54.8897 97.4124 54.9025C97.4148 54.9154 97.4162 54.9254 97.4176 54.9363C97.4296 55.0054 97.4405 55.0744 97.4519 55.1435C97.4548 55.1587 97.4567 55.174 97.4591 55.1911C97.4672 55.2444 97.4757 55.2982 97.4834 55.3511C97.4886 55.3811 97.4929 55.4111 97.4967 55.4406C97.5043 55.4882 97.511 55.5358 97.5172 55.5806C97.5172 55.5968 97.5219 55.613 97.5238 55.6282C97.5343 55.7039 97.5443 55.7796 97.5543 55.8558C97.5643 55.932 97.5738 56.0077 97.5829 56.0839C97.5853 56.1044 97.5876 56.1258 97.59 56.1468C97.5995 56.223 97.6076 56.2996 97.6162 56.3753C97.6234 56.443 97.6305 56.5106 97.6372 56.5787C97.6372 56.5834 97.6372 56.5887 97.6372 56.5934L97.6405 56.6234V56.6439C97.6529 56.7658 97.6633 56.8877 97.6733 57.0096C97.6772 57.0572 97.6814 57.1049 97.6853 57.1558C97.6853 57.1834 97.6895 57.2115 97.6915 57.2387C97.6934 57.2658 97.6957 57.2972 97.6981 57.3263C97.7014 57.3772 97.7053 57.4282 97.7081 57.4786C97.7083 57.4804 97.7083 57.4822 97.7081 57.4839C97.7081 57.5058 97.711 57.5272 97.7119 57.5491C97.7162 57.621 97.7205 57.692 97.7243 57.7648C97.7243 57.772 97.7243 57.7796 97.7243 57.7877C97.7291 57.8672 97.7329 57.9463 97.7362 58.0258C97.7391 58.0844 97.741 58.1424 97.7429 58.2001C97.7429 58.2215 97.7429 58.2424 97.7457 58.2639C97.746 58.2664 97.746 58.269 97.7457 58.2715C97.7457 58.3267 97.7495 58.382 97.7505 58.4372C97.7505 58.4586 97.7505 58.4801 97.7529 58.501C97.7529 58.5291 97.7529 58.5572 97.7529 58.5853C97.7529 58.6362 97.7557 58.6872 97.7562 58.7377V58.7415C97.7562 58.7724 97.7562 58.8024 97.7562 58.8329C97.7562 58.8802 97.7562 58.9269 97.7562 58.9729V59.0205C97.7781 59.1272 97.7791 59.2105 97.7781 59.2929Z" fill="#EDE4FF"/>
<path fill-rule="evenodd" clip-rule="evenodd" d="M97.7793 59.293V59.4006C97.7793 59.4173 97.7793 59.4339 97.7793 59.4482C97.7793 59.5149 97.7793 59.583 97.7793 59.6506V59.6596C97.7793 59.6887 97.7793 59.7173 97.7793 59.7463C97.7793 59.8211 97.7764 59.8949 97.774 59.9692C97.774 59.9887 97.774 60.0077 97.774 60.0263C97.774 60.0449 97.774 60.0672 97.774 60.0877C97.774 60.1244 97.774 60.162 97.7707 60.1991C97.7707 60.2625 97.7664 60.3263 97.7635 60.3896C97.7635 60.3996 97.7635 60.4101 97.7635 60.4201C97.7635 60.4301 97.7635 60.431 97.7635 60.4363C97.7597 60.5287 97.755 60.6206 97.7502 60.7129L97.7469 60.7844C97.7435 60.8468 97.7393 60.9096 97.7355 60.972C97.7316 61.0344 97.7288 61.0872 97.725 61.1444C97.7113 61.3564 97.6954 61.5674 97.6774 61.7772C97.658 62.0048 97.6358 62.231 97.6107 62.4558C97.5939 62.6053 97.5764 62.7546 97.5583 62.9038L97.5297 63.1276C97.4864 63.461 97.4374 63.7943 97.3869 64.1205C97.3688 64.2294 97.3505 64.3381 97.3321 64.4467C97.3197 64.519 97.3074 64.5895 97.2945 64.6638C97.2683 64.8066 97.2421 64.9495 97.2145 65.0924C97.1742 65.3063 97.1315 65.5185 97.0864 65.729C97.0569 65.8719 97.0264 66.0085 96.9955 66.148C96.9479 66.3566 96.9002 66.5623 96.8526 66.7671C96.7701 67.1087 96.6841 67.4448 96.5945 67.7756C96.5231 68.0407 96.4496 68.3021 96.3741 68.5599C96.3366 68.6869 96.2985 68.8138 96.2598 68.9408C96.1445 69.3218 96.026 69.6937 95.9041 70.0565C95.8438 70.2378 95.7825 70.4165 95.7203 70.5927C95.4736 71.2984 95.2189 71.966 94.966 72.5883C94.9236 72.6912 94.8817 72.7936 94.8398 72.8945C94.8189 72.9455 94.7979 72.9955 94.7765 73.046C94.7352 73.1453 94.6935 73.2437 94.6512 73.3412C94.5468 73.5844 94.4438 73.8193 94.3422 74.0459L94.2208 74.3126C94.0603 74.6635 93.9041 74.9916 93.7551 75.2959C93.6808 75.4473 93.6083 75.5929 93.5375 75.7326C93.4846 75.8373 93.4337 75.9387 93.3827 76.0364C93.351 76.0998 93.3181 76.1633 93.2841 76.2268L93.2365 76.3183C93.2051 76.3787 93.1737 76.4373 93.1437 76.4935C93.0961 76.5787 93.0546 76.6601 93.0122 76.7373C92.9841 76.7887 92.957 76.8387 92.9303 76.8868C92.8908 76.9592 92.8522 77.0297 92.8165 77.0911C92.7689 77.1768 92.7243 77.2552 92.6827 77.3263C92.6522 77.3797 92.6237 77.4287 92.5975 77.4735C92.5803 77.5035 92.5637 77.5311 92.5499 77.5573C92.5418 77.5701 92.5346 77.583 92.5275 77.5954L92.487 77.6616C92.4265 77.763 92.3918 77.8154 92.3918 77.8154C87.47 85.2356 79.7464 91.9012 70.5185 96.1582C69.5748 96.5934 68.6159 97.003 67.642 97.3867C63.5778 98.9862 59.265 100.115 54.8023 100.646C53.0438 100.86 51.2748 100.977 49.5034 100.998C48.6097 101.006 47.7123 100.99 46.8111 100.95C42.6989 100.758 38.6293 100.031 34.7047 98.7881C27.673 96.5649 20.6365 92.5702 13.9386 86.3675C13.8624 86.2975 13.7876 86.2275 13.7124 86.1566C13.6057 86.0575 13.5005 85.9571 13.3958 85.8571L13.3391 85.8023C13.2404 85.7071 13.1423 85.6118 13.0448 85.5166L12.9362 85.409C12.8886 85.3652 12.8467 85.3209 12.8024 85.2771C12.7582 85.2333 12.7282 85.2033 12.6915 85.1661C12.6329 85.108 12.5758 85.0495 12.5182 84.9918C12.4829 84.9566 12.4486 84.9209 12.4139 84.8857C12.3329 84.8034 12.2521 84.7207 12.1715 84.6376C12.0877 84.5499 12.0034 84.4623 11.9201 84.3742C11.8982 84.3514 11.8763 84.3266 11.8553 84.3061L11.7648 84.2109C11.7048 84.1476 11.6458 84.0842 11.5863 84.0204C11.5615 83.9942 11.5387 83.9676 11.5125 83.9409L11.352 83.7666L11.342 83.7557C11.3372 83.7504 11.3315 83.7443 11.3268 83.7381C11.2449 83.6481 11.1634 83.5585 11.0825 83.4685C11.012 83.39 10.9396 83.3114 10.872 83.2305C10.8539 83.2109 10.8368 83.1905 10.8196 83.1714L10.7515 83.0938C10.6849 83.0176 10.6187 82.9414 10.553 82.8652C10.5258 82.8343 10.4987 82.8028 10.4725 82.77C10.4068 82.6944 10.3419 82.6184 10.2777 82.5419L10.2439 82.5019C10.1801 82.4267 10.1163 82.351 10.0535 82.2752C10.0449 82.2652 10.0363 82.2543 10.0277 82.2438L9.97632 82.1819L9.76871 81.931L9.60014 81.7219L9.45205 81.5372L9.36776 81.4305L9.28967 81.3319L9.28491 81.3253C9.22729 81.2529 9.17063 81.1824 9.11491 81.1072C9.08158 81.0653 9.04873 81.0229 9.01635 80.9805C8.9473 80.8905 8.87873 80.801 8.81016 80.7105L8.75778 80.6405C8.71492 80.5839 8.67254 80.5277 8.63017 80.4705C8.61636 80.4515 8.60159 80.4334 8.58778 80.4143L8.57255 80.3939C8.49604 80.2904 8.41985 80.1867 8.34398 80.0829L8.34113 80.0786C8.26398 79.9724 8.1878 79.8672 8.11208 79.761L8.06447 79.6905C8.00542 79.6082 7.94733 79.5253 7.88876 79.442L7.84114 79.3729C7.78352 79.2896 7.72543 79.2067 7.66781 79.1225C7.59448 79.0153 7.5221 78.9087 7.44924 78.8015L7.3421 78.6406L7.23496 78.4787C7.22734 78.4672 7.21925 78.4558 7.21211 78.4444L7.03878 78.1792C7.03449 78.1725 7.03068 78.1663 7.02592 78.1601L6.99926 78.1182C6.93735 78.023 6.87545 77.9249 6.8145 77.8287C6.74545 77.7201 6.67688 77.6106 6.60879 77.5016L6.58689 77.4663C6.54943 77.4057 6.51197 77.3449 6.47451 77.2839C6.44356 77.2335 6.4126 77.1835 6.38213 77.133C6.25737 76.9267 6.1342 76.7203 6.01261 76.514L6.00833 76.5068L5.82452 76.1892C5.82452 76.1864 5.82167 76.1844 5.82071 76.1821C5.75691 76.0706 5.69405 75.9597 5.63024 75.8487C5.58739 75.7726 5.54453 75.6954 5.50215 75.6187C5.45977 75.5421 5.42072 75.4702 5.38025 75.3954C5.33977 75.3207 5.29359 75.2364 5.25121 75.1573C5.20883 75.0783 5.16883 75.003 5.12788 74.9254L5.0855 74.8454L5.08121 74.8378C5.02312 74.7264 4.96502 74.615 4.9074 74.5045C4.9074 74.4988 4.90169 74.4931 4.89836 74.4869C4.87264 74.4359 4.84693 74.3854 4.82074 74.335C4.79455 74.2845 4.76312 74.2216 4.73503 74.165L4.70741 74.1107L4.56456 73.825L4.39837 73.4831C4.34409 73.3688 4.2898 73.255 4.23599 73.1402C4.22647 73.1207 4.21742 73.1007 4.2079 73.0812C4.19076 73.0431 4.17314 73.006 4.15552 72.9679C4.12885 72.9107 4.10266 72.8531 4.076 72.796C4.02838 72.6883 3.97791 72.5817 3.92934 72.4741C3.92267 72.4579 3.91553 72.4422 3.90838 72.4264C3.86077 72.3188 3.81315 72.2122 3.76553 72.1046C3.72553 72.0136 3.68601 71.9231 3.64744 71.8317C3.63553 71.8055 3.62458 71.7788 3.61315 71.7527C3.56554 71.6393 3.51792 71.5265 3.4703 71.4127C3.47051 71.4116 3.47051 71.4104 3.4703 71.4093C3.42395 71.2979 3.37808 71.1868 3.33268 71.076C3.32173 71.0479 3.30983 71.0203 3.29888 70.9922C3.2584 70.8932 3.2184 70.7936 3.17936 70.6946C3.13555 70.5832 3.09221 70.4717 3.04841 70.3613C3.02698 70.3056 3.00555 70.2498 2.9846 70.1936C2.96365 70.1375 2.94222 70.0822 2.92079 70.026C2.89936 69.9698 2.87317 69.9022 2.85127 69.8403C2.82936 69.7784 2.80365 69.7165 2.7827 69.6546C2.73984 69.5378 2.69746 69.4208 2.65556 69.3037C2.65583 69.3019 2.65583 69.3002 2.65556 69.2984C2.61413 69.1818 2.5727 69.0656 2.53271 68.9489C2.50318 68.8648 2.47429 68.7805 2.44604 68.6961C2.44128 68.6827 2.43699 68.6699 2.43271 68.6565L2.4108 68.5937C2.40033 68.5613 2.3889 68.5289 2.37842 68.4985C2.37223 68.4808 2.367 68.4632 2.36081 68.4456C2.35461 68.428 2.34509 68.398 2.33747 68.3742C2.33414 68.3637 2.32985 68.3527 2.32604 68.3418C2.31509 68.3075 2.30366 68.2737 2.29224 68.2389C2.277 68.1913 2.26128 68.1437 2.247 68.0989C2.23748 68.0708 2.22795 68.0423 2.21938 68.0137C2.20462 67.9699 2.19081 67.9256 2.177 67.8818V67.8761C2.16891 67.8504 2.16033 67.8256 2.15272 67.7999C2.15272 67.7999 2.15272 67.797 2.15272 67.7961C2.12795 67.7166 2.1051 67.6371 2.07843 67.558C2.07415 67.5471 2.07081 67.5351 2.06748 67.5242C2.05034 67.469 2.03367 67.4137 2.017 67.3585C2.00034 67.3032 1.98082 67.2409 1.96272 67.1818C1.96078 67.1736 1.9584 67.1655 1.95558 67.1575C1.9351 67.088 1.91463 67.019 1.89415 66.949C1.87368 66.879 1.84987 66.7999 1.82844 66.7252C1.80701 66.6504 1.78511 66.5757 1.76463 66.5009C1.75892 66.4823 1.75415 66.4637 1.74844 66.4457C1.74273 66.4276 1.74082 66.4171 1.73654 66.4033C1.72796 66.3704 1.71844 66.338 1.70939 66.3052C1.70511 66.2904 1.70082 66.2757 1.69701 66.2609C1.68035 66.2018 1.66416 66.1438 1.6494 66.0847L1.59606 65.8857C1.57987 65.8266 1.56416 65.7676 1.54845 65.7081C1.54178 65.6823 1.53416 65.6562 1.52749 65.63C1.51035 65.5638 1.49321 65.4966 1.47654 65.4304C1.47414 65.4243 1.47239 65.4179 1.4713 65.4114C1.46702 65.3943 1.46226 65.3776 1.45797 65.3604C1.43289 65.2611 1.40797 65.1619 1.38321 65.0628C1.35845 64.9638 1.33512 64.8686 1.31321 64.7771C1.31321 64.77 1.30988 64.7628 1.30798 64.7557C1.29036 64.6833 1.27369 64.6128 1.25607 64.539C1.25322 64.5271 1.25083 64.5157 1.24798 64.5033C1.22893 64.4219 1.20988 64.3409 1.19179 64.2595C1.1756 64.1905 1.16036 64.1205 1.14417 64.0514C1.12798 63.9824 1.11084 63.9024 1.09655 63.8276C1.07751 63.7429 1.05941 63.6576 1.04132 63.5724C1.03417 63.5381 1.02655 63.5029 1.01941 63.4676C1.00703 63.4081 0.994174 63.3486 0.981794 63.2891C0.957985 63.1729 0.934176 63.0576 0.912272 62.9424C0.908938 62.9253 0.905605 62.9086 0.902272 62.891C0.887034 62.8181 0.873225 62.7448 0.859416 62.6715C0.852273 62.6353 0.845607 62.5986 0.83894 62.5624C0.827988 62.5072 0.817512 62.4519 0.807513 62.3972C0.788148 62.2946 0.769418 62.1927 0.751324 62.0915C0.70942 61.8572 0.669421 61.622 0.631327 61.3877C0.62466 61.3501 0.619422 61.3129 0.613232 61.2753C0.607042 61.2377 0.601328 61.2001 0.595137 61.1629C0.563392 60.9614 0.532758 60.7595 0.503235 60.5572C12.7696 41.492 38.8508 50.7623 55.4632 57.074C70.3805 62.7405 85.7139 50.397 92.338 44.002C92.3894 44.0624 92.4399 44.1234 92.4908 44.1839C92.5842 44.2962 92.6762 44.4094 92.767 44.5234L92.8684 44.651L92.8956 44.6857C92.9432 44.7467 92.9908 44.8072 93.0384 44.8681L93.0508 44.8838C93.0551 44.8905 93.0603 44.8967 93.0646 44.9024C93.0689 44.9081 93.0713 44.9115 93.0746 44.9153C93.1189 44.9724 93.1618 45.0295 93.2046 45.0862L93.2446 45.14C93.2737 45.1786 93.3022 45.2167 93.3299 45.2553L93.3675 45.3029L93.4189 45.3738C93.4346 45.3948 93.4498 45.4162 93.4665 45.4372C93.4908 45.47 93.5141 45.5029 93.5375 45.5352C93.5546 45.5586 93.5708 45.5829 93.5851 45.6057C93.5946 45.6191 93.6037 45.6319 93.6132 45.6443C93.6403 45.6833 93.6684 45.7224 93.6951 45.7614C93.7003 45.77 93.706 45.7776 93.7117 45.7852C93.7527 45.8452 93.7941 45.9043 93.8341 45.9638C93.8741 46.0233 93.9208 46.0909 93.9636 46.1543L94.0075 46.2205L94.086 46.34C94.0965 46.3567 94.1079 46.3728 94.1184 46.3876C94.1241 46.3957 94.1289 46.4038 94.1346 46.4119C94.1589 46.4505 94.1822 46.489 94.2089 46.5276L94.2155 46.5381L94.2717 46.6266C94.3041 46.6771 94.3355 46.7281 94.367 46.7785C94.3817 46.8019 94.3965 46.8262 94.4108 46.8495C94.4251 46.8728 94.4451 46.9047 94.4612 46.9319L94.5336 47.0504C94.5379 47.0576 94.5422 47.0657 94.547 47.0728L94.647 47.2414C94.6574 47.26 94.6689 47.2785 94.6793 47.2966C94.7146 47.3571 94.7498 47.4171 94.7841 47.4776C94.7841 47.4776 94.7841 47.4776 94.7841 47.4819L94.805 47.5185L94.8108 47.5285C94.846 47.592 94.8809 47.6541 94.9155 47.7147L94.9327 47.7457C94.9708 47.8142 95.0085 47.883 95.046 47.9519L95.0688 47.9952L95.0931 48.0399C95.1089 48.069 95.1246 48.0985 95.1408 48.128C95.1474 48.1409 95.155 48.1542 95.1617 48.1676C95.1684 48.1809 95.1693 48.1818 95.1731 48.1899C95.2084 48.2566 95.2436 48.3233 95.2774 48.3904C95.2869 48.4076 95.296 48.4256 95.3046 48.4428C95.3298 48.4904 95.3522 48.5418 95.3788 48.5914C95.3788 48.5942 95.3822 48.5971 95.3836 48.6004C95.3917 48.6161 95.3993 48.6323 95.4079 48.648C95.4355 48.7037 95.4636 48.7599 95.4903 48.8161L95.5188 48.8742L95.5293 48.8956C95.5293 48.8985 95.5322 48.9013 95.5331 48.9042L95.5384 48.9147C95.5631 48.9675 95.5884 49.0199 95.6131 49.0728L95.6269 49.1013C95.6379 49.1261 95.6488 49.149 95.6607 49.1752C95.6665 49.1861 95.6712 49.1975 95.6765 49.2094C95.6817 49.2213 95.6836 49.2237 95.6869 49.2313C95.695 49.2499 95.7041 49.269 95.7131 49.288C95.7265 49.3185 95.7407 49.3494 95.755 49.3804C95.7559 49.3834 95.7572 49.3863 95.7588 49.389C95.7731 49.4213 95.7879 49.4537 95.8017 49.4842C95.8112 49.5051 95.8207 49.5261 95.8293 49.5466C95.8379 49.567 95.8446 49.5813 95.8522 49.5985C95.8598 49.6156 95.8636 49.6237 95.8688 49.6366L95.9322 49.7823C95.9426 49.807 95.9526 49.8299 95.9626 49.8556C95.965 49.8604 95.9669 49.8656 95.9693 49.8704C95.9998 49.9432 96.0307 50.017 96.0607 50.0904C96.0655 50.1023 96.0707 50.1147 96.076 50.1266C96.0912 50.1642 96.1064 50.2013 96.1212 50.2394C96.1302 50.2613 96.1393 50.2837 96.1474 50.3061C96.1526 50.318 96.1569 50.3294 96.1622 50.3413C96.1674 50.3532 96.1726 50.3685 96.1784 50.3823C96.1931 50.4213 96.2088 50.4608 96.226 50.5004C96.235 50.5232 96.2431 50.548 96.2517 50.5689C96.2519 50.5707 96.2519 50.5724 96.2517 50.5742C96.2533 50.5774 96.2547 50.5807 96.256 50.5842C96.2582 50.5894 96.2601 50.5948 96.2617 50.6004C96.2712 50.6246 96.2807 50.648 96.2902 50.6751C96.2998 50.7023 96.306 50.7156 96.3131 50.7365C96.3298 50.7808 96.3464 50.8246 96.3607 50.8694C96.3674 50.888 96.375 50.9065 96.3817 50.9256C96.3917 50.9527 96.4017 50.9808 96.4112 51.0084C96.4183 51.0275 96.4255 51.047 96.4321 51.0665L96.4421 51.0956C96.466 51.1627 96.4898 51.2303 96.5131 51.298C96.5145 51.3013 96.5156 51.3049 96.5164 51.3084C96.526 51.3351 96.5345 51.3618 96.5441 51.3889L96.575 51.4813C96.5864 51.5156 96.5983 51.5503 96.6093 51.5846C96.6126 51.5941 96.616 51.6037 96.6188 51.6132C96.6187 51.6146 96.6187 51.616 96.6188 51.6175C96.6299 51.6492 96.6404 51.6821 96.6502 51.716C96.6531 51.7241 96.656 51.7318 96.6579 51.7394C96.6583 51.7419 96.6583 51.7445 96.6579 51.747C96.6612 51.756 96.6645 51.7656 96.6674 51.7756L96.6721 51.7917C96.6779 51.8084 96.6836 51.826 96.6883 51.8432C96.7088 51.9065 96.7288 51.9703 96.7483 52.0336L96.7598 52.0722C96.7788 52.1336 96.7974 52.1955 96.815 52.2565L96.835 52.3251C96.8536 52.3894 96.8717 52.4532 96.8902 52.5155C96.8945 52.5317 96.8998 52.5484 96.904 52.5632C96.9221 52.6274 96.9398 52.6912 96.9569 52.7536C96.9788 52.8346 96.9998 52.9151 97.0207 52.996C97.0388 53.0674 97.0574 53.1389 97.075 53.2103C97.0748 53.2119 97.0748 53.2135 97.075 53.215C97.0878 53.2665 97.1002 53.3184 97.1126 53.3708C97.1126 53.3708 97.1126 53.3736 97.1126 53.3746C97.1207 53.4093 97.1283 53.4441 97.1369 53.4784C97.1407 53.4955 97.1455 53.5136 97.1493 53.5308C97.1636 53.5941 97.1788 53.6579 97.1926 53.7212C97.2021 53.7627 97.2112 53.8046 97.2197 53.8455C97.2201 53.8471 97.2201 53.8487 97.2197 53.8503C97.2274 53.8841 97.2345 53.9188 97.2421 53.9526L97.2455 53.9693C97.2526 54.0031 97.2598 54.0369 97.2664 54.0707C97.2731 54.1045 97.2802 54.1364 97.2869 54.1698C97.2897 54.1817 97.2921 54.1941 97.294 54.206C97.305 54.2584 97.3155 54.3103 97.3255 54.3626C97.3312 54.3898 97.3359 54.4179 97.3412 54.445C97.3507 54.4926 97.3593 54.5402 97.3683 54.5879C97.3726 54.6102 97.3769 54.6355 97.3807 54.6555C97.3902 54.706 97.3988 54.7569 97.4078 54.8074C97.4131 54.8355 97.4178 54.864 97.4226 54.8917C97.4226 54.9045 97.4269 54.9174 97.4293 54.9302C97.4316 54.9431 97.4331 54.9531 97.4345 54.964C97.4398 54.9926 97.4445 55.0212 97.4493 55.0493C97.4559 55.0902 97.4626 55.1307 97.4688 55.1712C97.4716 55.1864 97.4735 55.2017 97.4759 55.2188C97.484 55.2721 97.4926 55.3259 97.5002 55.3788C97.5055 55.4088 97.5097 55.4388 97.5136 55.4683C97.5212 55.5159 97.5278 55.5636 97.534 55.6083C97.534 55.6245 97.5388 55.6407 97.5407 55.6559C97.5512 55.7316 97.5612 55.8074 97.5712 55.8835C97.5812 55.9597 97.5907 56.0354 97.5997 56.1116C97.6021 56.1321 97.6045 56.1535 97.6069 56.1745C97.6164 56.2507 97.6245 56.3273 97.6331 56.4031C97.6402 56.4707 97.6474 56.5383 97.654 56.6064C97.654 56.6111 97.654 56.6164 97.654 56.6211L97.6574 56.6511V56.6716C97.6697 56.7935 97.6802 56.9154 97.6902 57.0373C97.694 57.0849 97.6983 57.1326 97.7021 57.1835C97.7021 57.2111 97.7064 57.2392 97.7083 57.2664C97.7102 57.2935 97.7126 57.3249 97.715 57.354C97.7183 57.4049 97.7221 57.4559 97.725 57.5064C97.7252 57.5081 97.7252 57.5099 97.725 57.5116C97.725 57.5335 97.7278 57.5549 97.7288 57.5768C97.7312 57.6078 97.7326 57.6387 97.7345 57.6692C97.7374 57.7106 97.7393 57.7511 97.7412 57.7925C97.7412 57.7997 97.7412 57.8073 97.7412 57.8154C97.7414 57.8192 97.7414 57.823 97.7412 57.8268C97.745 57.9021 97.7488 57.9778 97.7516 58.053L97.7564 58.1668C97.7564 58.2078 97.7597 58.2497 97.7612 58.2911C97.7614 58.2936 97.7614 58.2962 97.7612 58.2987C97.7612 58.354 97.765 58.4087 97.7664 58.4635C97.7664 58.4854 97.7664 58.5063 97.7664 58.5282C97.7664 58.5501 97.7664 58.5844 97.7664 58.6125C97.7664 58.6635 97.7693 58.7144 97.7697 58.7649V58.7687C97.7697 58.7997 97.7697 58.8297 97.7697 58.8601C97.7697 58.9074 97.7697 58.9541 97.7697 59.0001V59.0478C97.7793 59.1273 97.7802 59.2106 97.7793 59.293Z" fill="#E4DBFA"/>
<path fill-rule="evenodd" clip-rule="evenodd" d="M97.7787 59.2922V59.3998C97.7787 59.4165 97.7787 59.4332 97.7787 59.4475C97.7787 59.5141 97.7787 59.5822 97.7787 59.6498V59.6589C97.7787 59.6879 97.7787 59.7165 97.7787 59.7456C97.7787 59.8203 97.7758 59.8941 97.7734 59.9684C97.7734 59.9879 97.7734 60.007 97.7734 60.0255C97.7734 60.0441 97.7734 60.0665 97.7734 60.087C97.7734 60.1236 97.7734 60.1613 97.7701 60.1984C97.7701 60.2617 97.7658 60.3255 97.7629 60.3889C97.7629 60.3989 97.7629 60.4093 97.7629 60.4193C97.7629 60.4293 97.7629 60.4303 97.7629 60.4355C97.7591 60.5279 97.7544 60.6198 97.7496 60.7122L97.7463 60.7836C97.7429 60.846 97.7387 60.9089 97.7348 60.9712C97.731 61.0336 97.7282 61.0865 97.7244 61.1436C97.7107 61.3557 97.6948 61.5666 97.6768 61.7765C97.6574 62.0041 97.6352 62.2303 97.6101 62.455C97.5933 62.6045 97.5758 62.7539 97.5577 62.9031L97.5291 63.1269C97.4858 63.4602 97.4368 63.7935 97.3863 64.1197C97.3682 64.2286 97.3499 64.3373 97.3315 64.4459C97.3191 64.5183 97.3068 64.5888 97.2939 64.663C97.2677 64.8059 97.2415 64.9488 97.2139 65.0916C97.1736 65.3056 97.1309 65.5178 97.0858 65.7283C97.0563 65.8711 97.0258 66.0078 96.9949 66.1473C96.9472 66.3559 96.8996 66.5616 96.852 66.7663C96.7695 67.1079 96.6834 67.4441 96.5939 67.7749C96.5225 68.0399 96.449 68.3014 96.3735 68.5591C96.336 68.6861 96.2979 68.8131 96.2592 68.9401C96.1439 69.321 96.0254 69.6929 95.9035 70.0558C95.8432 70.237 95.7819 70.4158 95.7197 70.5919C95.473 71.2976 95.2182 71.9652 94.9654 72.5876C94.923 72.6905 94.8811 72.7928 94.8392 72.8938C94.8183 72.9447 94.7973 72.9947 94.7759 73.0452C94.7346 73.1446 94.6929 73.243 94.6506 73.3404C94.5462 73.5836 94.4432 73.8185 94.3416 74.0452L94.2202 74.3118C94.0597 74.6628 93.9035 74.9909 93.7545 75.2951C93.6802 75.4466 93.6077 75.5921 93.5369 75.7318C93.484 75.8366 93.4331 75.938 93.3821 76.0356C93.3504 76.0991 93.3175 76.1626 93.2835 76.2261L93.2359 76.3175C93.2045 76.378 93.1731 76.4365 93.1431 76.4927C93.0954 76.578 93.054 76.6594 93.0116 76.7365C92.9835 76.788 92.9564 76.838 92.9297 76.8861C92.8902 76.9584 92.8516 77.0289 92.8159 77.0903C92.7683 77.1761 92.7237 77.2545 92.6821 77.3256C92.6516 77.3789 92.6231 77.4279 92.5969 77.4727C92.5797 77.5027 92.5631 77.5303 92.5493 77.5565C92.5412 77.5694 92.534 77.5822 92.5269 77.5946L92.4864 77.6608C92.4259 77.7622 92.3912 77.8146 92.3912 77.8146C87.4694 85.2349 79.7458 91.9004 70.5179 96.1575C69.5742 96.5927 68.6153 97.0022 67.6413 97.386C63.5772 98.9855 59.2644 100.115 54.8017 100.645C53.0432 100.859 51.2742 100.977 49.5028 100.997C48.6091 101.005 47.7117 100.99 46.8105 100.949C42.6983 100.757 38.6286 100.03 34.7041 98.7874C27.6724 96.5641 20.6359 92.5695 13.938 86.3668C13.8618 86.2968 13.787 86.2268 13.7118 86.1558C13.6051 86.0568 13.4999 85.9563 13.3951 85.8563L13.3385 85.8015C13.2398 85.7063 13.1417 85.6111 13.0442 85.5158L12.9356 85.4082C12.888 85.3644 12.8461 85.3201 12.8018 85.2763C12.7575 85.2325 12.7275 85.2025 12.6909 85.1654C12.6323 85.1073 12.5752 85.0487 12.5176 84.9911C12.4823 84.9559 12.448 84.9201 12.4133 84.8849C12.3323 84.8027 12.2515 84.72 12.1709 84.6368C12.0871 84.5492 12.0028 84.4616 11.9195 84.3735C11.8976 84.3506 11.8757 84.3259 11.8547 84.3054L11.7642 84.2102C11.7042 84.1468 11.6452 84.0835 11.5857 84.0197C11.5609 83.9935 11.5381 83.9668 11.5119 83.9402L11.3514 83.7659L11.3414 83.7549C11.3366 83.7497 11.3309 83.7435 11.3262 83.7373C11.2443 83.6473 11.1628 83.5578 11.0819 83.4678C11.0114 83.3892 10.939 83.3107 10.8714 83.2297C10.8533 83.2102 10.8362 83.1897 10.819 83.1707L10.7509 83.093C10.6843 83.0169 10.6181 82.9407 10.5524 82.8645C10.5252 82.8335 10.4981 82.8021 10.4719 82.7692C10.4062 82.6937 10.3413 82.6177 10.2771 82.5412L10.2433 82.5012C10.1795 82.4259 10.1157 82.3502 10.0529 82.2745C10.0443 82.2645 10.0357 82.2535 10.0271 82.2431L9.97572 82.1812L9.7681 81.9302L9.59953 81.7212L9.45144 81.5364L9.36716 81.4298L9.28907 81.3312L9.2843 81.3245C9.22669 81.2521 9.17002 81.1817 9.11431 81.1064C9.08098 81.0645 9.04812 81.0221 9.01574 80.9798C8.94669 80.8898 8.87812 80.8002 8.80956 80.7098L8.75718 80.6398C8.71432 80.5831 8.67194 80.5269 8.62956 80.4698C8.61575 80.4507 8.60099 80.4326 8.58718 80.4136L8.57194 80.3931C8.49544 80.2896 8.41925 80.186 8.34338 80.0822L8.34052 80.0779C8.26338 79.9717 8.18719 79.8665 8.11148 79.7603L8.06386 79.6898C8.00481 79.6074 7.94672 79.5246 7.88815 79.4412L7.84053 79.3722C7.78292 79.2889 7.72482 79.206 7.6672 79.1217C7.59387 79.0146 7.52149 78.9079 7.44864 78.8008L7.3415 78.6398L7.23436 78.4779C7.22674 78.4665 7.21864 78.4551 7.2115 78.4436L7.03817 78.1784C7.03389 78.1717 7.03008 78.1656 7.02532 78.1594L6.99865 78.1175C6.93675 78.0222 6.87484 77.9241 6.81389 77.8279C6.74485 77.7194 6.67628 77.6098 6.60818 77.5008L6.58628 77.4656C6.54882 77.4049 6.51136 77.3441 6.4739 77.2832C6.44295 77.2327 6.412 77.1827 6.38152 77.1322C6.25676 76.9259 6.13359 76.7196 6.01201 76.5132L6.00772 76.5061L5.82392 76.1885C5.82392 76.1856 5.82106 76.1837 5.82011 76.1813C5.7563 76.0699 5.69345 75.9589 5.62964 75.848C5.58678 75.7718 5.54393 75.6947 5.50155 75.618C5.45917 75.5413 5.42012 75.4694 5.37965 75.3947C5.33917 75.3199 5.29298 75.2356 5.2506 75.1566C5.20822 75.0775 5.16822 75.0023 5.12727 74.9247L5.08489 74.8447L5.08061 74.8371C5.02251 74.7256 4.96442 74.6142 4.9068 74.5037C4.9068 74.498 4.90109 74.4923 4.89775 74.4861C4.87204 74.4352 4.84633 74.3847 4.82014 74.3342C4.79395 74.2837 4.76252 74.2209 4.73442 74.1642L4.70681 74.1099L4.56395 73.8242L4.39777 73.4823C4.34348 73.3681 4.2892 73.2542 4.23539 73.1395C4.22587 73.12 4.21682 73.1 4.20729 73.0804C4.19015 73.0423 4.17253 73.0052 4.15492 72.9671C4.12825 72.91 4.10206 72.8524 4.07539 72.7952C4.02778 72.6876 3.9773 72.5809 3.92873 72.4733C3.92206 72.4571 3.91492 72.4414 3.90778 72.4257C3.86016 72.3181 3.81254 72.2114 3.76493 72.1038C3.72493 72.0129 3.6854 71.9224 3.64683 71.831C3.63493 71.8048 3.62398 71.7781 3.61255 71.7519C3.56493 71.6386 3.51731 71.5257 3.4697 71.4119C3.4699 71.4108 3.4699 71.4097 3.4697 71.4086C3.42335 71.2972 3.37748 71.186 3.33208 71.0753C3.32113 71.0472 3.30922 71.0195 3.29827 70.9915C3.2578 70.8924 3.2178 70.7929 3.17875 70.6938C3.13494 70.5824 3.09161 70.471 3.0478 70.3605C3.02637 70.3048 3.00495 70.2491 2.98399 70.1929C2.96304 70.1367 2.94161 70.0815 2.92019 70.0253C2.89876 69.9691 2.87257 69.9015 2.85066 69.8396C2.82876 69.7777 2.80305 69.7158 2.78209 69.6539C2.73924 69.537 2.69686 69.4201 2.65495 69.3029C2.65522 69.3012 2.65522 69.2994 2.65495 69.2977C2.61353 69.181 2.5721 69.0648 2.5321 68.9482C2.50258 68.864 2.47369 68.7798 2.44544 68.6953C2.44067 68.682 2.43639 68.6691 2.4321 68.6558L2.4102 68.5929C2.39972 68.5606 2.38829 68.5282 2.37782 68.4977C2.37163 68.4801 2.36639 68.4625 2.3602 68.4448C2.35401 68.4272 2.34449 68.3972 2.33687 68.3734C2.33353 68.3629 2.32925 68.352 2.32544 68.341C2.31449 68.3068 2.30306 68.273 2.29163 68.2382C2.27639 68.1906 2.26068 68.143 2.24639 68.0982C2.23687 68.0701 2.22735 68.0415 2.21878 68.013C2.20401 67.9691 2.1902 67.9249 2.1764 67.8811V67.8753C2.1683 67.8496 2.15973 67.8249 2.15211 67.7992C2.15211 67.7992 2.15211 67.7963 2.15211 67.7953C2.12735 67.7158 2.10449 67.6363 2.07783 67.5573C2.07354 67.5463 2.07021 67.5344 2.06687 67.5234C2.04973 67.4682 2.03307 67.413 2.0164 67.3577C1.99973 67.3025 1.98021 67.2401 1.96212 67.1811C1.96018 67.1729 1.95779 67.1647 1.95497 67.1568C1.9345 67.0873 1.91402 67.0182 1.89355 66.9482C1.87307 66.8782 1.84926 66.7992 1.82783 66.7244C1.80641 66.6497 1.7845 66.5749 1.76403 66.5001C1.75831 66.4816 1.75355 66.463 1.74784 66.4449C1.74212 66.4268 1.74022 66.4163 1.73593 66.4025C1.72736 66.3697 1.71784 66.3373 1.70879 66.3044C1.7045 66.2897 1.70022 66.2749 1.69641 66.2601C1.67974 66.2011 1.66355 66.143 1.64879 66.084L1.59546 65.8849C1.57927 65.8259 1.56355 65.7668 1.54784 65.7073C1.54117 65.6816 1.53356 65.6554 1.52689 65.6292C1.50975 65.563 1.4926 65.4959 1.47594 65.4297C1.47354 65.4235 1.47178 65.4172 1.4707 65.4106C1.46641 65.3935 1.46165 65.3768 1.45737 65.3597C14.6299 64.4507 29.6438 72.45 44.2334 77.3532C51.6375 79.8417 58.933 81.5326 65.8228 80.8569C68.2761 80.6164 70.6798 80.076 73.0155 79.1646C92.8945 71.4119 97.7429 58.5756 97.7801 58.4756C97.7801 58.4975 97.7801 58.5184 97.7801 58.5403C97.7801 58.5623 97.7801 58.5965 97.7801 58.6246C97.7801 58.6756 97.7829 58.7265 97.7834 58.777V58.7808C97.7834 58.8118 97.7834 58.8418 97.7834 58.8722C97.7834 58.9195 97.7834 58.9662 97.7834 59.0122V59.0599C97.7786 59.1265 97.7796 59.2099 97.7787 59.2922Z" fill="#BEB2DA"/>
<path d="M50.9392 1.00255C66.2026 0.78589 72.051 14.4441 72.051 14.4441" stroke="#E4DBFA" stroke-width="0.151917" stroke-linecap="round"/>
<path d="M48.5059 1.32422C48.5059 1.32422 43.197 1.4785 41.1975 1.94325" stroke="#E4DBFA" stroke-width="0.151917" stroke-linecap="round"/>
<path fill-rule="evenodd" clip-rule="evenodd" d="M15.9541 74.2972C15.9541 74.2972 16.2875 78.8447 17.4617 79.3814C18.636 79.918 20.2207 78.7938 20.0678 77.8995C19.915 77.0053 17.9727 72.3044 16.8741 73.0963C15.7756 73.8882 15.9541 74.2972 15.9541 74.2972Z" fill="#FED194"/>
<path fill-rule="evenodd" clip-rule="evenodd" d="M16.1387 75.8865C16.1387 75.8865 16.7373 76.6303 17.0606 76.9198C17.384 77.2093 17.6568 77.4651 17.7592 77.3798C17.8616 77.2946 18.2954 75.8084 17.7763 75.4208C17.2573 75.0332 16.0216 74.9951 16.0216 74.9951L16.1387 75.8865Z" fill="#F59D4E"/>
<path fill-rule="evenodd" clip-rule="evenodd" d="M70.5057 96.167C69.5619 96.6022 68.603 97.0117 67.6291 97.3955C63.5649 98.995 59.2521 100.124 54.7894 100.654C54.4813 99.5864 51.4085 88.9953 50.7514 90.0871C50.3886 90.6923 49.8905 96.0527 49.5005 100.996C44.4817 101.047 39.4866 100.3 34.7018 98.7845C34.3209 92.7818 33.9571 85.5306 33.7376 80.9697C33.608 78.2708 33.5295 76.5137 33.5295 76.5137L34.0904 76.5575L44.2216 77.3408L65.2353 78.9655L65.811 80.8445L69.4638 92.7666V92.7699L69.6338 93.3242C69.6352 93.3275 69.6361 93.3311 69.6366 93.3347L69.7742 93.7827L70.5057 96.167Z" fill="#663E36"/>
<path fill-rule="evenodd" clip-rule="evenodd" d="M70.5052 96.167C69.5614 96.6022 68.6025 97.0117 67.6286 97.3955C62.3392 83.5435 54.127 85.6415 47.8386 85.6415C40.874 85.6415 33.7376 80.9697 33.7376 80.9697C33.608 78.2708 33.5295 76.5137 33.5295 76.5137L34.0904 76.5575L44.2216 77.3413L65.2353 78.966L65.811 80.845L69.4638 92.7671V92.7704L69.6338 93.3247C69.6352 93.328 69.6361 93.3315 69.6366 93.3351L69.7742 93.7832L70.5052 96.167Z" fill="#59302A"/>
<path fill-rule="evenodd" clip-rule="evenodd" d="M65.2344 78.9652L69.4638 92.7696C67.3367 86.2764 61.385 83.3308 52.4905 82.9603C43.3478 82.577 35.879 79.6833 35.879 79.6833C35.879 79.6833 34.9504 78.6238 34.0895 76.5586L65.2344 78.9652Z" fill="#42211D"/>
<path fill-rule="evenodd" clip-rule="evenodd" d="M35.8787 79.6808C35.8787 79.6808 52.6078 83.9707 65.7437 80.6284L64.6561 77.0342L35.8787 79.6808Z" fill="#27140E"/>
<path fill-rule="evenodd" clip-rule="evenodd" d="M32.0223 76.5968V79.2791C32.0223 79.2791 48.4504 81.3486 60.4082 79.7391C60.4082 79.7391 64.9476 79.3348 65.7438 78.732L65.16 74.7568L32.0223 76.5968Z" fill="white"/>
<path fill-rule="evenodd" clip-rule="evenodd" d="M53.4583 24.4617C53.4583 24.4617 51.7545 25.9593 52.3102 27.0331C52.8659 28.1069 48.7651 26.0917 49.8694 24.5827C50.9736 23.0737 54.9273 19.419 55.084 21.3404C55.2406 23.2618 53.4583 24.4617 53.4583 24.4617Z" fill="#72120C"/>
<path fill-rule="evenodd" clip-rule="evenodd" d="M41.8795 14.4979C41.8795 14.4979 40.7843 17.1473 40.7791 19.6468C40.7739 22.1462 40.9096 24.8128 42.0776 26.2656C43.2457 27.7185 45.2095 27.9556 45.2095 27.9556C45.2095 27.9556 45.2147 31.0565 44.719 31.8217C44.2233 32.5869 45.7542 36.6587 46.8661 36.3978C47.978 36.1368 49.3641 35.7349 50.1722 33.5945C50.9803 31.4541 51.4431 32.5583 51.4431 32.5583C51.4431 32.5583 50.5836 27.5147 51.0003 26.6737C51.4169 25.8328 52.9074 23.7148 53.2007 22.4938C53.2007 22.4938 54.3435 22.56 55.0873 21.8977C55.8311 21.2353 56.0873 19.1806 54.9483 19.0492C54.9483 19.0492 55.8558 15.6883 55.3063 14.5359C54.7568 13.3836 49.3184 11.0241 48.3675 10.9513C47.4165 10.8784 41.8795 14.4979 41.8795 14.4979Z" fill="#FED194"/>
<path fill-rule="evenodd" clip-rule="evenodd" d="M44.6703 35.4629C44.6703 35.4629 43.1885 36.8914 44.4146 39.1251C45.6408 41.3589 44.447 44.9159 48.144 42.4974C51.8411 40.0789 53.561 39.3294 52.1473 37.6599C51.0044 36.31 49.0593 34.6562 47.8555 34.7134L47.3793 35.5819L46.9303 34.7434C46.2936 34.6553 44.6703 35.4629 44.6703 35.4629Z" fill="#BBC3C4"/>
<path fill-rule="evenodd" clip-rule="evenodd" d="M65.5834 76.865C65.5834 76.865 50.7519 79.8925 34.2728 77.4397C34.2728 77.4397 33.3281 77.3121 30.8748 77.2607L33.3281 36.2251C33.3281 36.2251 35.2042 35.3446 37.3447 34.4932C39.0241 33.8266 40.8684 33.1757 42.0912 32.9847C44.8759 32.55 44.084 36.4337 44.084 36.4337C44.084 36.4337 45.3487 40.2659 47.3801 39.9598C49.4115 39.6536 50.7519 36.2251 50.7519 36.2251C50.7519 36.2251 53.358 32.7928 54.5847 32.8314C54.5847 32.8314 55.8875 33.0218 57.5741 33.3295C59.2608 33.6371 61.9807 34.5199 62.4407 35.0913L63.6097 49.329L63.7049 50.4976C63.7049 50.4976 66.4263 70.4647 65.5834 76.865Z" fill="#6D378F"/>
<path fill-rule="evenodd" clip-rule="evenodd" d="M65.5835 76.8649C65.5835 76.8649 53.9995 79.2296 39.9317 78.0863C38.0818 77.9358 36.1885 77.7249 34.2728 77.4397C34.2728 77.4397 33.3281 77.312 30.8748 77.2606L32.5267 49.6242L33.3281 36.225C33.3281 36.225 35.2042 35.3446 37.3447 34.4932C37.3447 34.4932 41.1022 54.2926 49.2234 56.7835C57.3446 59.2744 62.5564 49.5399 62.5564 49.5399C62.5564 49.5399 62.9573 49.4361 63.6106 49.3299L63.7059 50.4985C63.7059 50.4985 63.8406 51.4856 64.0392 53.0917C64.5125 56.8921 65.3525 64.1576 65.642 69.9999C65.782 72.7907 65.7953 75.2564 65.5835 76.8649Z" fill="#582279"/>
<path fill-rule="evenodd" clip-rule="evenodd" d="M65.6414 69.9976C60.1139 72.2533 49.6708 76.1918 39.9278 78.0841C38.0778 77.9336 36.1845 77.7227 34.2689 77.4374C34.2689 77.4374 33.3241 77.3098 30.8708 77.2584L32.5227 49.622C33.0094 49.1106 33.4489 48.8339 33.8084 48.8482C37.5635 49.0015 42.2396 53.7819 42.2396 53.7819C42.2396 53.7819 45.0752 68.9515 62.6276 54.2242C63.1187 53.8115 63.5879 53.4333 64.0352 53.0895C64.5119 56.8913 65.3519 64.1568 65.6414 69.9976Z" fill="#42115F"/>
<path fill-rule="evenodd" clip-rule="evenodd" d="M13.8433 33.093L19.035 53.0643L36.1017 49.0206L40.0978 45.7674L36.1079 29.085L31.3466 28.4131L13.8433 33.093Z" fill="#FDAC2A"/>
<path opacity="0.5" fill-rule="evenodd" clip-rule="evenodd" d="M36.0016 28.6799L40.0962 45.7671L36.1216 49.007L36.0997 49.0198L34.415 41.991L31.1708 28.4594L31.1703 28.458L31.1746 28.4585L31.905 28.4918L36.0016 28.6799Z" fill="#CC4400"/>
<path opacity="0.5" fill-rule="evenodd" clip-rule="evenodd" d="M22.5307 43.0305C19.9046 42.3114 17.2213 40.9657 15.4885 39.3877L19.0355 53.0654L36.1022 49.0217L34.417 41.9924C30.8314 43.3804 26.0492 43.9942 22.5307 43.0305Z" fill="#CC4400"/>
<path fill-rule="evenodd" clip-rule="evenodd" d="M20.4196 31.2598L21.5939 35.8459C22.3039 35.6078 23.0153 35.3549 23.7143 35.0445L22.5934 30.627L20.4196 31.2598Z" fill="black"/>
<path fill-rule="evenodd" clip-rule="evenodd" d="M31.6473 44.7705C30.933 45.0915 30.2292 45.4176 29.5221 45.7195L30.7925 50.4813L32.9934 49.8189L31.6473 44.7705Z" fill="black"/>
<path fill-rule="evenodd" clip-rule="evenodd" d="M31.32 33.2565L26.5539 34.3355L25.7553 31.4813L30.5276 30.3623L31.32 33.2565Z" fill="#EAECED"/>
<path fill-rule="evenodd" clip-rule="evenodd" d="M27.0425 33.8809L26.7444 33.9504L26.1435 31.841L26.4416 31.7695L27.0425 33.8809Z" fill="black"/>
<path fill-rule="evenodd" clip-rule="evenodd" d="M27.1007 33.8658L26.9826 33.8939L26.3816 31.783L26.4997 31.7549L27.1007 33.8658Z" fill="black"/>
<path fill-rule="evenodd" clip-rule="evenodd" d="M27.3498 33.8076L27.2312 33.8353L26.6308 31.7234L26.7493 31.6953L27.3498 33.8076Z" fill="black"/>
<path fill-rule="evenodd" clip-rule="evenodd" d="M28.0992 33.6327L27.9806 33.6608L27.3811 31.5452L27.4997 31.5166L28.0992 33.6327Z" fill="black"/>
<path fill-rule="evenodd" clip-rule="evenodd" d="M28.6447 33.5038L28.437 33.5523L27.838 31.4343L28.0461 31.3848L28.6447 33.5038Z" fill="black"/>
<path fill-rule="evenodd" clip-rule="evenodd" d="M28.8516 33.4559L28.7325 33.484L28.134 31.3645L28.253 31.3359L28.8516 33.4559Z" fill="black"/>
<path fill-rule="evenodd" clip-rule="evenodd" d="M29.1022 33.3977L28.9832 33.4254L28.3851 31.3049L28.5041 31.2764L29.1022 33.3977Z" fill="black"/>
<path fill-rule="evenodd" clip-rule="evenodd" d="M29.6501 33.2683L29.4416 33.3173L28.844 31.1945L29.053 31.1445L29.6501 33.2683Z" fill="black"/>
<path fill-rule="evenodd" clip-rule="evenodd" d="M29.8576 33.2204L29.7385 33.2485L29.1409 31.1243L29.2605 31.0957L29.8576 33.2204Z" fill="black"/>
<path fill-rule="evenodd" clip-rule="evenodd" d="M30.3628 33.1022L30.2428 33.1303L29.6461 31.0037L29.7661 30.9746L30.3628 33.1022Z" fill="black"/>
<path fill-rule="evenodd" clip-rule="evenodd" d="M30.8695 32.9835L30.7495 33.012L30.1534 30.8826L30.2738 30.8535L30.8695 32.9835Z" fill="black"/>
<g style="mix-blend-mode:multiply" opacity="0.32">
<path fill-rule="evenodd" clip-rule="evenodd" d="M27.0843 42.562C27.8425 42.562 28.4571 41.9474 28.4571 41.1892C28.4571 40.431 27.8425 39.8164 27.0843 39.8164C26.3261 39.8164 25.7115 40.431 25.7115 41.1892C25.7115 41.9474 26.3261 42.562 27.0843 42.562Z" fill="#EDAD8A"/>
</g>
<g style="mix-blend-mode:multiply" opacity="0.32">
<path fill-rule="evenodd" clip-rule="evenodd" d="M30.1456 41.3473C30.553 41.3473 30.8832 41.017 30.8832 40.6097C30.8832 40.2023 30.553 39.8721 30.1456 39.8721C29.7382 39.8721 29.408 40.2023 29.408 40.6097C29.408 41.017 29.7382 41.3473 30.1456 41.3473Z" fill="#EDAD8A"/>
</g>
<path fill-rule="evenodd" clip-rule="evenodd" d="M52.9028 47.7439C52.9028 47.7439 53.1537 48.021 53.7704 48.0534C54.387 48.0858 57.2389 48.2515 57.5103 47.821C57.8436 47.2972 57.5708 46.473 57.0341 46.5601C56.4975 46.6472 52.9028 47.7439 52.9028 47.7439Z" fill="#42115F"/>
<path fill-rule="evenodd" clip-rule="evenodd" d="M52.8525 46.6338L57.1056 46.463L57.1505 47.5811L52.8974 47.7519L52.8525 46.6338Z" fill="white"/>
<path fill-rule="evenodd" clip-rule="evenodd" d="M10.7571 51.4469L17.8503 78.7314L41.1668 73.2072L46.6272 68.7621L41.1759 45.9703L34.6703 45.0527L10.7571 51.4469Z" fill="#FDAC2A"/>
<path opacity="0.5" fill-rule="evenodd" clip-rule="evenodd" d="M41.1749 45.9709L46.6262 68.7627L41.1954 73.1893L41.1659 73.2074L38.8636 63.6038L34.4318 45.1171L34.4313 45.1152L34.437 45.1157L35.4346 45.1614L41.1749 45.9709Z" fill="#D95F16"/>
<path fill-rule="evenodd" clip-rule="evenodd" d="M22.625 65.0219C19.037 64.0396 15.3714 62.2011 13.0062 60.0449L17.8523 78.7316L41.1688 73.2079L38.8665 63.6044C33.9652 65.4976 27.4325 66.3386 22.625 65.0219Z" fill="#FF920F"/>
<path fill-rule="evenodd" clip-rule="evenodd" d="M19.742 48.9419L21.3462 55.2084C22.3157 54.8818 23.2881 54.537 24.2433 54.1132L22.7115 48.0781L19.742 48.9419Z" fill="black"/>
<path fill-rule="evenodd" clip-rule="evenodd" d="M35.0809 67.4014C34.1071 67.8395 33.1429 68.2852 32.1762 68.6975L33.9124 75.205L36.9185 74.3002L35.0809 67.4014Z" fill="black"/>
<path fill-rule="evenodd" clip-rule="evenodd" d="M34.6345 51.6676L28.1233 53.1418L27.0323 49.2419L33.5522 47.7139L34.6345 51.6676Z" fill="#EAECED"/>
<path fill-rule="evenodd" clip-rule="evenodd" d="M28.7896 52.5219L28.3824 52.6171L27.5615 49.7348L27.9686 49.6377L28.7896 52.5219Z" fill="black"/>
<path fill-rule="evenodd" clip-rule="evenodd" d="M28.8682 52.5024L28.7068 52.54L27.8864 49.6563L28.0478 49.6182L28.8682 52.5024Z" fill="black"/>
<path fill-rule="evenodd" clip-rule="evenodd" d="M29.2095 52.4227L29.0476 52.4608L28.2276 49.5757L28.3891 49.5371L29.2095 52.4227Z" fill="black"/>
<path fill-rule="evenodd" clip-rule="evenodd" d="M30.234 52.1824L30.0721 52.22L29.253 49.3296L29.4149 49.291L30.234 52.1824Z" fill="black"/>
<path fill-rule="evenodd" clip-rule="evenodd" d="M30.9812 52.008L30.6969 52.0746L29.8788 49.1809L30.1631 49.1133L30.9812 52.008Z" fill="black"/>
<path fill-rule="evenodd" clip-rule="evenodd" d="M31.2619 51.9435L31.0995 51.9811L30.2819 49.0859L30.4443 49.0469L31.2619 51.9435Z" fill="black"/>
<path fill-rule="evenodd" clip-rule="evenodd" d="M31.6057 51.8619L31.4428 51.9L30.6257 49.0029L30.7886 48.9639L31.6057 51.8619Z" fill="black"/>
<path fill-rule="evenodd" clip-rule="evenodd" d="M32.3544 51.6865L32.0691 51.7537L31.2525 48.8532L31.5382 48.7852L32.3544 51.6865Z" fill="black"/>
<path fill-rule="evenodd" clip-rule="evenodd" d="M32.6371 51.6196L32.4738 51.6581L31.6581 48.7554L31.8209 48.7168L32.6371 51.6196Z" fill="black"/>
<path fill-rule="evenodd" clip-rule="evenodd" d="M33.3277 51.4593L33.1644 51.4979L32.3491 48.5918L32.5129 48.5527L33.3277 51.4593Z" fill="black"/>
<path fill-rule="evenodd" clip-rule="evenodd" d="M34.0183 51.2966L33.8545 51.3352L33.0402 48.4258L33.204 48.3867L34.0183 51.2966Z" fill="black"/>
<g style="mix-blend-mode:multiply" opacity="0.32">
<path fill-rule="evenodd" clip-rule="evenodd" d="M28.8462 64.3841C29.8821 64.3841 30.7219 63.5444 30.7219 62.5085C30.7219 61.4726 29.8821 60.6328 28.8462 60.6328C27.8103 60.6328 26.9706 61.4726 26.9706 62.5085C26.9706 63.5444 27.8103 64.3841 28.8462 64.3841Z" fill="#EDAD8A"/>
</g>
<g style="mix-blend-mode:multiply" opacity="0.32">
<path fill-rule="evenodd" clip-rule="evenodd" d="M33.0299 62.7242C33.5864 62.7242 34.0375 62.2731 34.0375 61.7166C34.0375 61.1601 33.5864 60.709 33.0299 60.709C32.4734 60.709 32.0223 61.1601 32.0223 61.7166C32.0223 62.2731 32.4734 62.7242 33.0299 62.7242Z" fill="#EDAD8A"/>
</g>
<path fill-rule="evenodd" clip-rule="evenodd" d="M51.6721 20.5475C51.6721 20.5475 52.2435 17.8509 51.6892 15.6977C51.135 13.5444 51.8178 11.084 51.8178 11.084C51.8178 11.084 56.2058 11.7092 55.8829 15.0039C55.5601 18.2986 54.9482 19.0476 54.9482 19.0476C54.9482 19.0476 53.9101 18.9443 52.6673 20.3514C51.4245 21.7585 51.6721 20.5475 51.6721 20.5475Z" fill="#72120C"/>
<path fill-rule="evenodd" clip-rule="evenodd" d="M57.6089 19.4306C55.9799 23.7248 53.4586 24.4619 53.4586 24.4619C53.4586 24.4619 54.2909 23.5233 54.0128 20.8634C53.9357 20.1306 53.5538 18.9415 53.041 17.603C51.6934 14.0883 49.4401 9.54751 49.4401 9.54751L48.3673 8.64277C48.3673 8.64277 51.1291 7.53137 53.7766 8.79277C55.7014 9.71131 59.2375 15.1364 57.6089 19.4306Z" fill="#6D378F"/>
<path fill-rule="evenodd" clip-rule="evenodd" d="M55.6161 14.317C54.5809 16.7403 53.041 17.6027 53.041 17.6027C51.6934 14.088 49.4401 9.54715 49.4401 9.54715L48.3673 8.64241C48.3673 8.64241 51.2539 7.30007 53.7766 8.79241L53.8243 8.8205C55.7138 9.94538 56.4797 12.2947 55.6161 14.317Z" fill="white"/>
<path fill-rule="evenodd" clip-rule="evenodd" d="M53.5387 18.9831C52.6625 16.8607 51.8525 15.1736 50.8087 14.0241C49.8002 12.9142 48.5745 12.3032 46.8593 12.2832C44.5936 12.2561 42.9613 13.8156 42.0942 14.9127C41.8281 15.244 41.5892 15.5962 41.3799 15.966C41.3799 15.966 40.4752 14.138 39.6081 12.257C39.6857 12.1327 39.7443 11.9973 39.7819 11.8556C39.7978 11.7935 39.802 11.7289 39.7942 11.6652C39.6766 10.8485 40.6799 9.6495 39.7614 9.79711C39.519 9.83664 39.1933 10.1257 38.8433 10.5314C38.8415 10.534 38.8394 10.5364 38.8371 10.5385C38.7138 10.2528 38.599 9.98092 38.4971 9.72902L38.4909 9.71521C38.4913 9.7143 38.4913 9.71327 38.4909 9.71235C38.4424 9.59363 38.3973 9.47998 38.3557 9.37141C38.2029 8.97475 38.0957 8.65476 38.0557 8.45191C37.9302 7.74372 37.8751 7.02483 37.8914 6.30578C37.9152 4.97962 38.1733 3.49633 38.9528 2.65397C40.2323 1.27305 44.7217 1.42495 47.8712 5.78341C50.9963 10.1076 53.4996 18.8469 53.5387 18.9831Z" fill="#6D378F"/>
<path fill-rule="evenodd" clip-rule="evenodd" d="M50.8083 14.0242C49.7997 12.9143 48.574 12.3033 46.8588 12.2833C44.5932 12.2562 42.9609 13.8157 42.0937 14.9128C41.9902 14.8459 41.8983 14.7624 41.8218 14.6657C41.378 14.0223 40.4695 12.7838 39.7828 11.8562C39.2843 11.1819 38.9038 10.6715 38.9038 10.6715L38.8443 10.5334L38.4981 9.73245L38.4919 9.71864C38.4923 9.71772 38.4923 9.7167 38.4919 9.71578C38.4629 9.59102 37.82 6.70824 40.52 5.50875C43.2789 4.28211 47.7612 7.60393 50.623 13.6038C50.6926 13.7492 50.7543 13.8893 50.8083 14.0242Z" fill="#582279"/>
<path fill-rule="evenodd" clip-rule="evenodd" d="M51.5919 15.0477C51.5333 14.9581 48.7877 11.8544 46.5754 13.5944C44.4149 15.2929 40.5655 16.1586 39.0746 12.9753C38.9665 12.7431 38.8751 12.5035 38.8013 12.2582C38.777 12.1768 38.756 12.0973 38.7398 12.0201C38.5346 11.0435 38.9632 10.2916 39.7622 9.80112C41.0603 9.004 44.0569 9.51541 46.7592 10.8206C48.8605 11.8315 50.7843 13.3229 51.5919 15.0477Z" fill="#72120C"/>
<path fill-rule="evenodd" clip-rule="evenodd" d="M45.2095 27.9542C45.2095 27.9542 46.4095 28.058 47.8414 27.5346C47.8414 27.5346 48.667 27.0494 47.9285 28.3918C47.1899 29.7341 45.1157 30.0265 45.1157 30.0265L45.2095 27.9542Z" fill="#F59D4E"/>
<path fill-rule="evenodd" clip-rule="evenodd" d="M42.5862 19.6109C42.6489 19.2748 42.5534 18.9751 42.3729 18.9415C42.1925 18.9078 41.9954 19.153 41.9328 19.4891C41.8701 19.8252 41.9656 20.1249 42.146 20.1586C42.3265 20.1922 42.5236 19.947 42.5862 19.6109Z" fill="#72120C"/>
<path fill-rule="evenodd" clip-rule="evenodd" d="M46.9399 20.2066C47.0026 19.8705 46.9071 19.5708 46.7266 19.5372C46.5462 19.5035 46.3491 19.7487 46.2864 20.0848C46.2238 20.4209 46.3193 20.7206 46.4997 20.7543C46.6802 20.7879 46.8773 20.5427 46.9399 20.2066Z" fill="#72120C"/>
<path fill-rule="evenodd" clip-rule="evenodd" d="M46.4029 17.5314C46.3863 17.458 46.491 17.4052 46.5763 17.3885C46.8472 17.3347 47.5258 17.2576 47.7191 17.7695C47.8791 18.1904 47.651 18.0909 47.6196 18.0247C47.572 17.9223 47.4429 17.7052 47.2972 17.6223C46.9625 17.428 46.442 17.6995 46.4029 17.5314Z" fill="#72120C"/>
<path fill-rule="evenodd" clip-rule="evenodd" d="M41.4276 17.6398C41.3652 17.5636 41.4343 17.4436 41.5066 17.3769C41.7376 17.1641 42.3523 16.6969 42.8652 17.1864C43.2875 17.5883 43.0014 17.5988 42.929 17.5388C42.8175 17.4464 42.5542 17.2645 42.3599 17.2488C41.9109 17.2112 41.5719 17.814 41.4276 17.6398Z" fill="#72120C"/>
<path fill-rule="evenodd" clip-rule="evenodd" d="M43.9462 19.6814C43.9125 20.0452 43.8544 20.4063 43.7724 20.7623C43.7366 20.9409 43.6876 21.1161 43.6433 21.2928C43.599 21.4695 43.5424 21.6428 43.4852 21.8166C43.4538 21.9042 43.4228 21.9904 43.3838 22.0818C43.3729 22.1078 43.3607 22.1333 43.3471 22.158L43.3362 22.178L43.3309 22.188C43.3309 22.1909 43.3262 22.1971 43.3281 22.1942C43.33 22.1914 43.3314 22.1856 43.3343 22.1775C43.3354 22.1706 43.3354 22.1635 43.3343 22.1566C43.3343 22.1528 43.3343 22.1523 43.3343 22.1499C43.3343 22.1475 43.3343 22.1456 43.3343 22.1461C43.3343 22.1461 43.3343 22.1466 43.3343 22.1461V22.1504L43.339 22.1566C43.3581 22.1807 43.3804 22.2022 43.4052 22.2204C43.4366 22.2436 43.4694 22.2649 43.5033 22.2842C43.5738 22.3242 43.6505 22.3623 43.729 22.3975C44.0577 22.5346 44.399 22.6392 44.748 22.7099V22.729C44.384 22.7211 44.0234 22.6568 43.679 22.5385C43.5928 22.5088 43.5086 22.4733 43.4271 22.4323C43.343 22.3931 43.2668 22.3387 43.2024 22.2718C43.1858 22.2537 43.1726 22.2327 43.1633 22.2099C43.1529 22.1858 43.1504 22.1589 43.1562 22.1333C43.1592 22.1205 43.1642 22.1083 43.1709 22.0971L43.1857 22.0676C43.196 22.048 43.2051 22.0278 43.2128 22.0071C43.2471 21.9242 43.2762 21.8385 43.3052 21.7533C43.4214 21.4109 43.5257 21.0638 43.6285 20.7166C43.7314 20.3695 43.8304 20.0214 43.9281 19.6729L43.9462 19.6814Z" fill="#F59D4E"/>
<path fill-rule="evenodd" clip-rule="evenodd" d="M43.2434 24.5135C44.0439 24.6297 45.4529 24.6802 46.6991 23.9364C46.7166 23.9256 46.7396 23.9304 46.7514 23.9473C46.7633 23.9642 46.7599 23.9874 46.7438 24.0002C46.0438 24.555 44.6796 25.3535 43.1868 24.7112C43.1395 24.6901 43.115 24.6375 43.1293 24.5877C43.1435 24.538 43.1922 24.5064 43.2434 24.5135Z" fill="#F59D4E"/>
<path fill-rule="evenodd" clip-rule="evenodd" d="M47.5337 21.5783C47.6163 21.5783 47.6833 21.5114 47.6833 21.4288C47.6833 21.3462 47.6163 21.2793 47.5337 21.2793C47.4512 21.2793 47.3842 21.3462 47.3842 21.4288C47.3842 21.5114 47.4512 21.5783 47.5337 21.5783Z" fill="#F59D4E"/>
<path fill-rule="evenodd" clip-rule="evenodd" d="M42.1572 21.1086C42.2397 21.1086 42.3067 21.0417 42.3067 20.9591C42.3067 20.8765 42.2397 20.8096 42.1572 20.8096C42.0746 20.8096 42.0076 20.8765 42.0076 20.9591C42.0076 21.0417 42.0746 21.1086 42.1572 21.1086Z" fill="#F59D4E"/>
<path fill-rule="evenodd" clip-rule="evenodd" d="M48.0943 21.8267C48.1527 21.8267 48.2 21.7793 48.2 21.7209C48.2 21.6626 48.1527 21.6152 48.0943 21.6152C48.0359 21.6152 47.9886 21.6626 47.9886 21.7209C47.9886 21.7793 48.0359 21.8267 48.0943 21.8267Z" fill="#F59D4E"/>
<path fill-rule="evenodd" clip-rule="evenodd" d="M41.3396 20.5317C41.398 20.5317 41.4453 20.4844 41.4453 20.426C41.4453 20.3676 41.398 20.3203 41.3396 20.3203C41.2812 20.3203 41.2339 20.3676 41.2339 20.426C41.2339 20.4844 41.2812 20.5317 41.3396 20.5317Z" fill="#F59D4E"/>
<path fill-rule="evenodd" clip-rule="evenodd" d="M41.3904 21.8716C41.4488 21.8716 41.4961 21.8243 41.4961 21.7659C41.4961 21.7075 41.4488 21.6602 41.3904 21.6602C41.332 21.6602 41.2847 21.7075 41.2847 21.7659C41.2847 21.8243 41.332 21.8716 41.3904 21.8716Z" fill="#F59D4E"/>
<path fill-rule="evenodd" clip-rule="evenodd" d="M48.1885 21.3228C48.2469 21.3228 48.2942 21.2754 48.2942 21.217C48.2942 21.1587 48.2469 21.1113 48.1885 21.1113C48.1301 21.1113 48.0828 21.1587 48.0828 21.217C48.0828 21.2754 48.1301 21.3228 48.1885 21.3228Z" fill="#F59D4E"/>
<path fill-rule="evenodd" clip-rule="evenodd" d="M46.889 22.0793C46.9716 22.0793 47.0385 22.0124 47.0385 21.9298C47.0385 21.8472 46.9716 21.7803 46.889 21.7803C46.8064 21.7803 46.7395 21.8472 46.7395 21.9298C46.7395 22.0124 46.8064 22.0793 46.889 22.0793Z" fill="#F59D4E"/>
<path fill-rule="evenodd" clip-rule="evenodd" d="M47.6579 22.5001C47.7633 22.5001 47.8488 22.4146 47.8488 22.3091C47.8488 22.2037 47.7633 22.1182 47.6579 22.1182C47.5524 22.1182 47.4669 22.2037 47.4669 22.3091C47.4669 22.4146 47.5524 22.5001 47.6579 22.5001Z" fill="#F59D4E"/>
<path fill-rule="evenodd" clip-rule="evenodd" d="M41.519 21.2715C41.6244 21.2715 41.7099 21.1861 41.7099 21.0806C41.7099 20.9751 41.6244 20.8896 41.519 20.8896C41.4135 20.8896 41.328 20.9751 41.328 21.0806C41.328 21.1861 41.4135 21.2715 41.519 21.2715Z" fill="#F59D4E"/>
<path fill-rule="evenodd" clip-rule="evenodd" d="M48.4401 22.3223C48.5456 22.3223 48.6311 22.2368 48.6311 22.1314C48.6311 22.0259 48.5456 21.9404 48.4401 21.9404C48.3347 21.9404 48.2492 22.0259 48.2492 22.1314C48.2492 22.2368 48.3347 22.3223 48.4401 22.3223Z" fill="#F59D4E"/>
<path opacity="0.67" fill-rule="evenodd" clip-rule="evenodd" d="M51.5927 15.0483C51.5341 14.9588 48.7885 11.8551 46.5762 13.595C44.4157 15.2936 40.5663 16.1592 39.0754 12.976C38.9673 12.7438 38.8759 12.5041 38.8021 12.2589C38.7778 12.1774 38.7568 12.0979 38.7406 12.0208C39.8501 13.5617 42.4253 13.7012 43.7377 13.4426C46.05 12.9879 46.7447 10.8675 46.76 10.8213C48.8613 11.8322 50.7851 13.3236 51.5927 15.0483Z" fill="#540200"/>
<path fill-rule="evenodd" clip-rule="evenodd" d="M44.3295 31.0844C44.3295 31.0844 46.51 33.6396 47.0038 34.8829L47.3785 35.581L47.8547 34.7124C47.8547 34.7124 51.5336 30.7601 52.266 30.352C52.266 30.352 52.4365 30.1987 52.6917 30.6249C52.9469 31.0511 55.5531 32.9534 55.5531 32.9534C55.5531 32.9534 53.4412 33.2305 52.0617 35.581C50.6822 37.9314 50.767 37.9485 50.767 37.9485C50.767 37.9485 50.0527 35.8367 47.8547 34.7105L47.3785 35.579L46.9295 34.7405C46.9295 34.7405 45.1133 35.4071 43.7677 38.2023C43.7677 38.2023 43.5634 38.3047 43.3586 37.3847C43.1539 36.4647 41.4682 32.9901 40.8377 32.8372C40.2073 32.6844 42.6077 31.8777 43.5462 31.3554C44.2957 30.9396 44.3295 31.0844 44.3295 31.0844Z" fill="white"/>
<path fill-rule="evenodd" clip-rule="evenodd" d="M48.1628 72.5705C47.3404 73.3648 44.8333 74.201 43.1153 74.6605C42.3424 74.8667 41.7296 74.9967 41.5025 75.0124C40.7696 75.0638 37.393 75.5495 36.6097 75.6004C35.8264 75.6514 34.8955 75.3533 35.0298 74.7743C35.1641 74.1952 36.3926 74.3486 37.4997 74.06C38.6068 73.7714 40.1225 72.8339 40.6168 72.3234C41.111 71.8129 42.2691 70.143 42.2005 69.752C42.132 69.3611 42.4953 69.1559 41.1663 68.6278C39.8373 68.0997 39.4582 67.0273 39.663 66.2431C39.8677 65.4588 40.0373 66.1926 41.2639 66.7035C42.4905 67.2145 44.3462 67.2821 44.8238 68.1002C45.3014 68.9182 46.34 69.2906 46.34 69.2906C46.34 69.2906 46.479 69.3892 46.6861 69.5549C47.4423 70.1611 49.0984 71.6658 48.1628 72.5705Z" fill="#FED194"/>
<path fill-rule="evenodd" clip-rule="evenodd" d="M48.1627 72.5688C47.3404 73.3631 44.8333 74.1993 43.1152 74.6588C43.1152 74.6588 44.5685 74.0397 45.6671 72.9921C46.7656 71.9446 46.3814 69.5941 46.3814 69.5941C46.4819 69.5725 46.5839 69.5584 46.6866 69.5518C47.4423 70.1594 49.0984 71.6641 48.1627 72.5688Z" fill="#F59D4E"/>
<path fill-rule="evenodd" clip-rule="evenodd" d="M72.5691 62.5449C71.7515 64.9986 56.2157 71.2842 54.7358 71.9465C53.2558 72.6089 52.4873 71.9465 52.4873 71.9465L47.3269 73.375C47.7864 72.0465 46.0365 68.9295 46.0365 68.9295C47.0364 68.4533 50.4054 67.2433 50.4054 67.2433C50.4054 66.3619 51.0954 65.2119 53.3948 64.0629C54.6605 63.4301 57.2733 61.2873 59.3666 59.4887C61.0756 58.0202 62.4389 56.7807 62.4389 56.7807C62.4389 56.7807 62.2089 54.9032 60.9061 50.419C59.6033 45.9348 61.2508 38.9221 61.2508 36.8532C61.2508 34.7842 62.4413 35.0913 62.4413 35.0913C62.4413 35.0913 64.0893 34.6442 67.104 40.6226C70.1187 46.601 73.3867 60.094 72.5691 62.5449Z" fill="white"/>
<path opacity="0.54" fill-rule="evenodd" clip-rule="evenodd" d="M59.368 59.4907C61.077 58.0222 62.4403 56.7827 62.4403 56.7827C62.4403 56.7827 62.2103 54.9051 60.9075 50.4209C59.6047 45.9368 61.2523 38.9241 61.2523 36.8551C61.2523 34.7861 62.4427 35.0932 62.4427 35.0932C62.4427 35.0932 61.538 36.1789 61.7404 38.9893C61.9427 41.7997 62.7822 53.507 67.0788 55.4432C71.3753 57.3793 59.368 59.4907 59.368 59.4907Z" fill="#D2D7DB"/>
<path fill-rule="evenodd" clip-rule="evenodd" d="M62.4389 56.7826C62.4389 56.7826 63.7975 56.0288 64.9727 56.3607C66.1479 56.6926 66.8464 56.7826 66.8464 56.7826C66.8464 56.7826 67.9193 56.8207 65.4155 55.4921C62.9118 54.1636 62.1637 55.2945 62.1637 55.2945L62.4389 56.7826Z" fill="#949A9B"/>
<path opacity="0.54" fill-rule="evenodd" clip-rule="evenodd" d="M50.4069 67.2451C50.4069 67.2451 51.5021 68.2332 52.0292 69.9193C52.5564 71.6055 52.4887 71.9459 52.4887 71.9459L47.3284 73.3745C47.3284 73.3745 47.6441 72.6426 47.0808 71.2603C47.0808 71.2603 50.1045 72.0631 50.5474 70.1893C50.9902 68.3156 50.4069 67.2451 50.4069 67.2451Z" fill="#D2D7DB"/>
<path fill-rule="evenodd" clip-rule="evenodd" d="M50.4068 67.2451C50.4068 67.2451 51.502 68.6737 51.2458 70.0069C50.9896 71.3402 50.2387 72.5721 50.2387 72.5721L52.4886 71.9483C52.4886 71.9483 52.5139 69.4084 50.4068 67.2451Z" fill="#949A9B"/>
<path fill-rule="evenodd" clip-rule="evenodd" d="M15.7341 70.5508C15.7341 70.5508 14.4884 72.6879 16.3879 75.833C16.3879 75.833 17.5397 76.8959 17.8164 76.3649C18.0931 75.834 17.3574 75.5335 17.2588 75.0316C17.1602 74.5297 16.815 72.8483 16.5445 72.1317C16.2741 71.415 15.7341 70.5508 15.7341 70.5508Z" fill="#FED194"/>
<path fill-rule="evenodd" clip-rule="evenodd" d="M50.7515 90.0861C50.3886 90.6913 49.8905 96.0517 49.5006 100.995C48.6069 101.003 47.7095 100.988 46.8082 100.947C47.4925 97.4554 48.3382 94.0498 48.8844 92.5403C50.1596 89.0133 50.7515 90.0861 50.7515 90.0861Z" fill="#59302A"/>
<path fill-rule="evenodd" clip-rule="evenodd" d="M69.7765 93.783C69.7341 93.6569 69.6884 93.5083 69.6389 93.335L69.7765 93.783Z" fill="#59302A"/>
</svg>
