<svg width="40" height="40" viewBox="0 0 40 40" fill="none" xmlns="http://www.w3.org/2000/svg">
<path fill-rule="evenodd" clip-rule="evenodd" d="M40 5C40 2.23858 37.7614 0 35 0H5C2.23858 0 0 2.23858 0 5V35C0 37.7614 2.23858 40 5 40H35C37.7614 40 40 37.7614 40 35V5Z" fill="white" fill-opacity="0.85"/>
<path fill-rule="evenodd" clip-rule="evenodd" d="M23.0893 13.4111C22.7639 13.0856 22.2362 13.0856 21.9108 13.4111L16.9108 18.4111C16.5853 18.7365 16.5853 19.2641 16.9108 19.5896L21.9108 24.5896C22.2362 24.915 22.7639 24.915 23.0893 24.5896C23.4147 24.2641 23.4147 23.7365 23.0893 23.4111L18.6786 19.0003L23.0893 14.5896C23.4147 14.2641 23.4147 13.7365 23.0893 13.4111Z" fill="#2A3D48" fill-opacity="0.5"/>
</svg>
