<svg width="14" height="10" viewBox="0 0 14 10" fill="none" xmlns="http://www.w3.org/2000/svg">
<path fill-rule="evenodd" clip-rule="evenodd" d="M0.333374 0.833333C0.333374 0.373096 0.70647 0 1.16671 0H12.8334C13.2936 0 13.6667 0.373096 13.6667 0.833333C13.6667 1.29357 13.2936 1.66667 12.8334 1.66667H1.16671C0.70647 1.66667 0.333374 1.29357 0.333374 0.833333ZM0.333374 5C0.333374 4.53976 0.70647 4.16667 1.16671 4.16667H8.66671C9.12694 4.16667 9.50004 4.53976 9.50004 5C9.50004 5.46024 9.12694 5.83333 8.66671 5.83333H1.16671C0.70647 5.83333 0.333374 5.46024 0.333374 5ZM1.16671 8.33333C0.70647 8.33333 0.333374 8.70643 0.333374 9.16667C0.333374 9.6269 0.70647 10 1.16671 10H12.8334C13.2936 10 13.6667 9.6269 13.6667 9.16667C13.6667 8.70643 13.2936 8.33333 12.8334 8.33333H1.16671Z" fill="#1C294D"/>
<path fill-rule="evenodd" clip-rule="evenodd" d="M0.333984 5.00033C0.333984 4.54009 0.70708 4.16699 1.16732 4.16699H8.66732C9.12755 4.16699 9.50065 4.54009 9.50065 5.00033C9.50065 5.46056 9.12755 5.83366 8.66732 5.83366H1.16732C0.70708 5.83366 0.333984 5.46056 0.333984 5.00033Z" fill="#FC6E1D"/>
</svg>
