<svg width="18" height="16" viewBox="0 0 18 16" fill="none" xmlns="http://www.w3.org/2000/svg">
<path fill-rule="evenodd" clip-rule="evenodd" d="M1.50002 0.5C1.03978 0.5 0.666687 0.873096 0.666687 1.33333C0.666687 1.79357 1.03978 2.16667 1.50002 2.16667V1.33333L1.50003 2.16667H1.50006H1.5002H1.5003H1.50042H1.50056H1.50073H1.50161H1.50283H1.50357H1.50397H1.5044H1.5063H1.50854H1.50915H1.50978H1.51111H1.54315H1.66278H2.07294H2.5015L4.43741 10.6847C4.53722 11.1239 4.96695 11.4025 5.40589 11.3186C5.45662 11.3283 5.50898 11.3333 5.56252 11.3333H14C14.3474 11.3333 14.6583 11.1179 14.7803 10.7926L17.2803 4.12594C17.3763 3.87002 17.3406 3.58332 17.185 3.35867C17.0293 3.13403 16.7733 3 16.5 3H4.40006L3.9793 1.14865C3.89307 0.769242 3.55577 0.5 3.16669 0.5H2.07294H1.66278H1.54315H1.53806H1.53328H1.53213H1.531H1.5288H1.52463H1.51723H1.51639H1.51558H1.51478H1.51401H1.51325H1.51252H1.51111H1.5063H1.5044H1.50397H1.50357H1.50283H1.50073H1.50042H1.5003H1.5002H1.50006H1.50003L1.50002 1.33333V0.5ZM4.77885 4.66667L5.91521 9.66667H13.4225L15.2975 4.66667H4.77885ZM7.33335 12.1667C6.41288 12.1667 5.66669 12.9129 5.66669 13.8333C5.66669 14.7538 6.41288 15.5 7.33335 15.5C8.25383 15.5 9.00002 14.7538 9.00002 13.8333C9.00002 12.9129 8.25383 12.1667 7.33335 12.1667ZM10.6667 13.8333C10.6667 12.9129 11.4129 12.1667 12.3334 12.1667C13.2538 12.1667 14 12.9129 14 13.8333C14 14.7538 13.2538 15.5 12.3334 15.5C11.4129 15.5 10.6667 14.7538 10.6667 13.8333Z" fill="#1C294D" fill-opacity="0.5"/>
</svg>
