<svg width="12" height="18" viewBox="0 0 12 18" fill="none" xmlns="http://www.w3.org/2000/svg">
<path fill-rule="evenodd" clip-rule="evenodd" d="M9.58438 8.87971L5.99999 14.7921L2.4156 8.87971C0.677066 6.01205 2.69702 2.30942 5.99999 2.30942C9.30296 2.30942 11.3229 6.01205 9.58438 8.87971ZM1.04797 9.74421C-1.35391 5.78238 1.43676 0.666992 5.99999 0.666992C10.5632 0.666992 13.3539 5.78238 10.952 9.74421L6.53556 17.029C6.28931 17.4352 5.71067 17.4352 5.46442 17.029L1.04797 9.74421ZM6.00015 4.77305C5.11181 4.77305 4.39167 5.50839 4.39167 6.41547C4.39167 7.32256 5.11181 8.0579 6.00015 8.0579C6.88849 8.0579 7.60863 7.32256 7.60863 6.41547C7.60863 5.50839 6.88849 4.77305 6.00015 4.77305Z" fill="#1C294D" fill-opacity="0.5"/>
</svg>
