<svg width="13" height="13" viewBox="0 0 13 13" fill="none" xmlns="http://www.w3.org/2000/svg">
<path fill-rule="evenodd" clip-rule="evenodd" d="M7.1604 0.875C6.25917 0.875 5.55507 1.597 5.50958 2.4583C5.48986 2.83186 5.45758 3.2307 5.4067 3.54251C5.38804 3.65684 5.32635 3.82741 5.21418 4.04391C5.10592 4.25286 4.96836 4.47111 4.82844 4.67378C4.6894 4.87518 4.5535 5.05331 4.45215 5.18125C4.43557 5.20219 4.41996 5.22172 4.40547 5.23972L3.51043 5.49997C3.30084 5.34301 3.0403 5.25 2.75796 5.25H1.50398C0.811427 5.25 0.25 5.80964 0.25 6.5V10.875C0.25 11.5654 0.811427 12.125 1.50398 12.125H2.75796C3.14075 12.125 3.48348 11.954 3.71349 11.6845L3.71377 11.6847C4.31172 11.9744 4.96789 12.125 5.63275 12.125H10.3966C11.3302 12.125 12.1225 11.4424 12.2577 10.5216L12.7298 7.30731C12.896 6.17572 12.0159 5.16071 10.8687 5.16071H9.44989V3.15722C9.44989 1.89678 8.42485 0.875 7.1604 0.875ZM4.01195 10.4393L4.26205 10.5605C4.68915 10.7674 5.15785 10.875 5.63275 10.875H10.3966C10.7078 10.875 10.9719 10.6475 11.017 10.3405L11.489 7.12625C11.5444 6.74905 11.2511 6.41071 10.8687 6.41071H8.8229C8.47662 6.41071 8.19591 6.13089 8.19591 5.78571V3.15722C8.19591 2.58714 7.7323 2.125 7.1604 2.125C6.96179 2.125 6.77416 2.29049 6.76183 2.52401C6.74136 2.9116 6.70631 3.36389 6.64441 3.7432C6.59479 4.0473 6.46499 4.35379 6.32833 4.61753C6.18777 4.88882 6.01916 5.15398 5.86144 5.38242C5.70286 5.61213 5.54965 5.81281 5.43632 5.95589C5.37946 6.02767 5.33215 6.08556 5.2986 6.12604C5.28181 6.1463 5.26843 6.16223 5.25899 6.17341L5.24783 6.18657L5.24457 6.19039L5.24355 6.19158L5.24319 6.192L5.24305 6.19217C5.24299 6.19224 5.24293 6.1923 4.76675 5.78571L5.24293 6.1923C5.1637 6.28451 5.05924 6.35171 4.94232 6.38571L4.01195 6.65624V10.4393ZM2.75796 6.5H1.50398V7.75V9.625V10.875H2.75796V10.8304V9.625V7.75V6.5Z" fill="#7986CB"/>
</svg>
